# Jade Cocoon mesh export
# source ../Extracted/DATA001_split\0841_094B1800.bin sector 19
o mesh_000
v -37 0 -37
v 0 0 -53
v -81 0 -82
v 0 0 -117
v 37 0 -37
v 81 0 -82
v 0 0 -53
v 0 0 -117
v 0 0 0
v 37 0 -37
v -37 0 -37
v 0 0 -53
v -37 0 37
v -52 0 0
v -81 0 82
v -114 0 0
v -37 0 -37
v -81 0 -82
v -52 0 0
v -114 0 0
v 0 0 0
v -37 0 -37
v -37 0 37
v -52 0 0
v 37 0 37
v 0 0 53
v 81 0 82
v 0 0 117
v -37 0 37
v -81 0 82
v 0 0 53
v 0 0 117
v 0 0 0
v -37 0 37
v 37 0 37
v 0 0 53
v 37 0 -37
v 52 0 0
v 81 0 -82
v 114 0 0
v 37 0 37
v 81 0 82
v 52 0 0
v 114 0 0
v 0 0 0
v 37 0 37
v 37 0 -37
v 52 0 0
f 1 2 3
f 2 4 3
f 5 6 7
f 6 8 7
f 9 10 11
f 10 12 11
f 13 14 15
f 14 16 15
f 17 18 19
f 18 20 19
f 21 22 23
f 22 24 23
f 25 26 27
f 26 28 27
f 29 30 31
f 30 32 31
f 33 34 35
f 34 36 35
f 37 38 39
f 38 40 39
f 41 42 43
f 42 44 43
f 45 46 47
f 46 48 47
o mesh_001
v -12 21 0
v 25 0 0
v -12 -21 0
f 49 50 51
o mesh_002
v 18 84 -52
v 0 80 -57
v 18 102 -34
v 0 98 -40
v 18 84 -52
v 22 111 -31
v 25 113 -46
v 24 130 -30
v 54 31 -34
v 39 42 -47
v 53 51 -34
v 32 68 -52
v 39 42 -47
v 35 29 -46
v 10 38 -52
v 9 27 -50
v 26 109 -13
v 14 69 34
v 27 110 17
v 13 75 61
v 53 51 -34
v 32 68 -52
v 48 77 -30
v 58 51 -3
v 53 51 -34
v 52 74 -3
v 48 77 -30
v 54 51 32
v 58 51 -3
v 49 73 28
v 52 74 -3
v 53 51 -34
v 58 51 -3
v 54 31 -34
v 61 21 -3
v 42 89 26
v 46 105 0
v 38 96 32
v 42 117 0
v 6 58 75
v 0 31 80
v 9 55 69
v 4 42 74
v 14 69 34
v 0 65 23
v 13 75 61
v 27 110 17
v 13 75 61
v 38 96 32
v 13 75 61
v 0 65 23
v 0 80 63
v 0 65 23
v 14 69 34
v 0 73 -15
v 14 79 -15
v 28 123 -3
v 24 130 -30
v 26 109 -13
v 22 111 -31
v 27 110 17
v 28 123 -3
v 26 109 -13
v 18 102 -34
v 19 91 -17
v 22 111 -31
v 26 109 -13
v 0 37 75
v 4 42 74
v 0 31 80
v 0 31 80
v 6 58 75
v 0 58 77
v 25 113 -46
v 24 130 -30
v 33 126 -30
v 24 130 -30
v 28 123 -3
v 33 126 -30
v 42 117 0
v 14 79 -15
v 19 91 -17
v 0 73 -15
v 0 83 -16
v 58 11 -3
v 61 21 -3
v 53 16 36
v 56 26 36
v 46 105 0
v 37 116 -31
v 42 117 0
v 33 126 -30
v 28 123 -3
v 27 110 17
v 42 117 0
v 38 96 32
v 61 21 -3
v 58 11 -3
v 54 31 -34
v 51 20 -34
v 19 91 -17
v 18 102 -34
v 0 83 -16
v 0 98 -40
v 58 51 -3
v 54 51 32
v 61 21 -3
v 56 26 36
v 34 29 58
v 36 38 57
v 0 37 75
v 4 42 74
v 53 16 36
v 56 26 36
v 34 29 58
v 36 38 57
v 35 29 -46
v 39 42 -47
v 51 20 -34
v 54 31 -34
v 0 38 -61
v 10 38 -52
v 0 21 -58
v 9 27 -50
v 6 58 75
v 13 75 61
v 0 58 77
v 0 80 63
v 14 69 34
v 26 109 -13
v 14 79 -15
v 19 91 -17
v 56 26 36
v 54 51 32
v 36 38 57
v 35 53 55
v 36 38 57
v 35 53 55
v 4 42 74
v 9 55 69
v 9 55 69
v 13 75 61
v 6 58 75
v 35 53 55
v 31 72 51
v 9 55 69
v 13 75 61
v 42 89 26
v 38 96 32
v 13 75 61
v 31 72 51
v 42 89 26
v 13 75 61
v 54 51 32
v 49 73 28
v 35 53 55
v 31 72 51
v 52 74 -3
v 41 84 1
v 49 73 28
v 40 82 23
v 41 84 1
v 46 105 0
v 40 82 23
v 42 89 26
v 40 82 23
v 42 89 26
v 31 72 51
v 49 73 28
v 40 82 23
v 31 72 51
v 52 74 -3
v 53 94 -25
v 41 84 1
v 48 77 -30
v 53 94 -25
v 52 74 -3
v 41 84 1
v 53 94 -25
v 46 105 0
v 53 94 -25
v 37 116 -31
v 46 105 0
v 38 95 -45
v 25 113 -46
v 53 94 -25
v 37 116 -31
v 32 68 -52
v 38 95 -45
v 48 77 -30
v 53 94 -25
v 0 66 -58
v 0 80 -57
v 32 68 -52
v 18 84 -52
v 0 38 -61
v 0 66 -58
v 10 38 -52
v 10 38 -52
v 0 66 -58
v 39 42 -47
v 32 68 -52
v 18 84 -52
v 25 113 -46
v 32 68 -52
v 38 95 -45
v 18 102 -34
v 22 111 -31
v 18 84 -52
v 25 113 -46
v 33 126 -30
v 37 116 -31
v 35 29 -46
v 0 44 -31
v 9 27 -50
v 0 21 -58
v 0 44 -31
v 35 29 -46
v 37 24 -15
v 51 20 -34
v 51 20 -34
v 58 11 -3
v 37 24 -15
v 44 16 13
v 53 16 36
v 44 16 13
v 58 11 -3
v 34 29 58
v 17 33 44
v 53 16 36
v 44 16 13
v 0 37 57
v 17 33 44
v 0 37 75
v 34 29 58
v 0 50 -6
v 0 44 -31
v 37 24 -15
v 44 16 13
v 0 50 -6
v 37 24 -15
v 17 33 44
v 0 50 -6
v 44 16 13
v 0 37 57
v 0 50 -6
v 17 33 44
v -18 84 -52
v -18 102 -34
v 0 80 -57
v 0 98 -40
v -18 84 -52
v -25 113 -46
v -22 111 -31
v -24 130 -30
v -54 31 -34
v -53 51 -34
v -39 42 -47
v -32 68 -52
v -39 42 -47
v -10 38 -52
v -35 29 -46
v -9 27 -50
v -26 109 -13
v -27 110 17
v -14 69 34
v -13 75 61
v -53 51 -34
v -48 77 -30
v -32 68 -52
v -58 51 -3
v -52 74 -3
v -53 51 -34
v -48 77 -30
v -54 51 32
v -49 73 28
v -58 51 -3
v -52 74 -3
v -53 51 -34
v -54 31 -34
v -58 51 -3
v -61 21 -3
v -42 89 26
v -38 96 32
v -46 105 0
v -42 117 0
v -6 58 75
v -9 55 69
v 0 31 80
v -4 42 74
v -14 69 34
v -13 75 61
v 0 65 23
v -27 110 17
v -38 96 32
v -13 75 61
v -13 75 61
v 0 80 63
v 0 65 23
v 0 65 23
v 0 73 -15
v -14 69 34
v -14 79 -15
v -28 123 -3
v -26 109 -13
v -24 130 -30
v -22 111 -31
v -27 110 17
v -26 109 -13
v -28 123 -3
v -18 102 -34
v -22 111 -31
v -19 91 -17
v -26 109 -13
v 0 37 75
v 0 31 80
v -4 42 74
v 0 31 80
v 0 58 77
v -6 58 75
v -25 113 -46
v -33 126 -30
v -24 130 -30
v -24 130 -30
v -33 126 -30
v -28 123 -3
v -42 117 0
v -14 79 -15
v 0 73 -15
v -19 91 -17
v 0 83 -16
v -58 11 -3
v -53 16 36
v -61 21 -3
v -56 26 36
v -46 105 0
v -42 117 0
v -37 116 -31
v -33 126 -30
v -28 123 -3
v -42 117 0
v -27 110 17
v -38 96 32
v -61 21 -3
v -54 31 -34
v -58 11 -3
v -51 20 -34
v -19 91 -17
v 0 83 -16
v -18 102 -34
v 0 98 -40
v -58 51 -3
v -61 21 -3
v -54 51 32
v -56 26 36
v -34 29 58
v 0 37 75
v -36 38 57
v -4 42 74
v -53 16 36
v -34 29 58
v -56 26 36
v -36 38 57
v -35 29 -46
v -51 20 -34
v -39 42 -47
v -54 31 -34
v 0 38 -61
v 0 21 -58
v -10 38 -52
v -9 27 -50
v -6 58 75
v 0 58 77
v -13 75 61
v 0 80 63
v -14 69 34
v -14 79 -15
v -26 109 -13
v -19 91 -17
v -56 26 36
v -36 38 57
v -54 51 32
v -35 53 55
v -36 38 57
v -4 42 74
v -35 53 55
v -9 55 69
v -9 55 69
v -6 58 75
v -13 75 61
v -35 53 55
v -9 55 69
v -31 72 51
v -13 75 61
v -42 89 26
v -13 75 61
v -38 96 32
v -31 72 51
v -13 75 61
v -42 89 26
v -54 51 32
v -35 53 55
v -49 73 28
v -31 72 51
v -52 74 -3
v -49 73 28
v -41 84 1
v -40 82 23
v -41 84 1
v -40 82 23
v -46 105 0
v -42 89 26
v -40 82 23
v -31 72 51
v -42 89 26
v -49 73 28
v -31 72 51
v -40 82 23
v -52 74 -3
v -41 84 1
v -53 94 -25
v -48 77 -30
v -52 74 -3
v -53 94 -25
v -41 84 1
v -46 105 0
v -53 94 -25
v -53 94 -25
v -46 105 0
v -37 116 -31
v -38 95 -45
v -53 94 -25
v -25 113 -46
v -37 116 -31
v -32 68 -52
v -48 77 -30
v -38 95 -45
v -53 94 -25
v 0 66 -58
v -32 68 -52
v 0 80 -57
v -18 84 -52
v 0 38 -61
v -10 38 -52
v 0 66 -58
v -10 38 -52
v -39 42 -47
v 0 66 -58
v -32 68 -52
v -18 84 -52
v -32 68 -52
v -25 113 -46
v -38 95 -45
v -18 102 -34
v -18 84 -52
v -22 111 -31
v -25 113 -46
v -37 116 -31
v -33 126 -30
v -35 29 -46
v -9 27 -50
v 0 44 -31
v 0 21 -58
v 0 44 -31
v -37 24 -15
v -35 29 -46
v -51 20 -34
v -51 20 -34
v -37 24 -15
v -58 11 -3
v -44 16 13
v -53 16 36
v -58 11 -3
v -44 16 13
v -34 29 58
v -53 16 36
v -17 33 44
v -44 16 13
v 0 37 57
v 0 37 75
v -17 33 44
v -34 29 58
v 0 50 -6
v -37 24 -15
v 0 44 -31
v -44 16 13
v -37 24 -15
v 0 50 -6
v -17 33 44
v -44 16 13
v 0 50 -6
v 0 37 57
v -17 33 44
v 0 50 -6
f 52 53 54
f 53 55 54
f 56 57 58
f 57 59 58
f 60 61 62
f 61 63 62
f 64 65 66
f 65 67 66
f 68 69 70
f 69 71 70
f 72 73 74
f 75 76 77
f 76 78 77
f 79 80 81
f 80 82 81
f 83 84 85
f 84 86 85
f 87 88 89
f 88 90 89
f 91 92 93
f 92 94 93
f 95 96 97
f 98 99 100
f 101 102 103
f 104 105 106
f 105 107 106
f 108 109 110
f 109 111 110
f 112 113 114
f 115 116 117
f 116 118 117
f 119 120 121
f 122 123 124
f 125 126 127
f 128 129 130
f 129 131 130
f 132 133 134
f 133 135 134
f 136 137 138
f 137 139 138
f 140 141 142
f 141 143 142
f 144 145 146
f 145 147 146
f 148 149 150
f 149 151 150
f 152 153 154
f 153 155 154
f 156 157 158
f 157 159 158
f 160 161 162
f 161 163 162
f 164 165 166
f 165 167 166
f 168 169 170
f 169 171 170
f 172 173 174
f 173 175 174
f 176 177 178
f 177 179 178
f 180 181 182
f 181 183 182
f 184 185 186
f 185 187 186
f 188 189 190
f 189 191 190
f 192 193 194
f 195 196 197
f 196 198 197
f 199 200 201
f 202 203 204
f 205 206 207
f 206 208 207
f 209 210 211
f 210 212 211
f 213 214 215
f 214 216 215
f 217 218 219
f 220 221 222
f 223 224 225
f 226 227 228
f 229 230 231
f 232 233 234
f 235 236 237
f 236 238 237
f 239 240 241
f 240 242 241
f 243 244 245
f 244 246 245
f 247 248 249
f 250 251 252
f 251 253 252
f 254 255 256
f 255 257 256
f 258 259 260
f 261 262 263
f 264 265 266
f 265 267 266
f 268 269 270
f 269 271 270
f 272 273 274
f 273 275 274
f 276 277 278
f 279 280 281
f 280 282 281
f 283 284 285
f 284 286 285
f 287 288 289
f 290 291 292
f 293 294 295
f 296 297 298
f 299 300 301
f 300 302 301
f 303 304 305
f 304 306 305
f 307 308 309
f 308 310 309
f 311 312 313
f 312 314 313
f 315 316 317
f 316 318 317
f 319 320 321
f 322 323 324
f 323 325 324
f 326 327 328
f 327 329 328
f 330 331 332
f 331 333 332
f 334 335 336
f 335 337 336
f 338 339 340
f 339 341 340
f 342 343 344
f 345 346 347
f 348 349 350
f 351 352 353
f 352 354 353
f 355 356 357
f 356 358 357
f 359 360 361
f 362 363 364
f 363 365 364
f 366 367 368
f 369 370 371
f 372 373 374
f 375 376 377
f 376 378 377
f 379 380 381
f 380 382 381
f 383 384 385
f 384 386 385
f 387 388 389
f 388 390 389
f 391 392 393
f 392 394 393
f 395 396 397
f 396 398 397
f 399 400 401
f 400 402 401
f 403 404 405
f 404 406 405
f 407 408 409
f 408 410 409
f 411 412 413
f 412 414 413
f 415 416 417
f 416 418 417
f 419 420 421
f 420 422 421
f 423 424 425
f 424 426 425
f 427 428 429
f 428 430 429
f 431 432 433
f 432 434 433
f 435 436 437
f 436 438 437
f 439 440 441
f 442 443 444
f 443 445 444
f 446 447 448
f 449 450 451
f 452 453 454
f 453 455 454
f 456 457 458
f 457 459 458
f 460 461 462
f 461 463 462
f 464 465 466
f 467 468 469
f 470 471 472
f 473 474 475
f 476 477 478
f 479 480 481
f 482 483 484
f 483 485 484
f 486 487 488
f 487 489 488
f 490 491 492
f 491 493 492
f 494 495 496
f 497 498 499
f 498 500 499
f 501 502 503
f 502 504 503
f 505 506 507
f 508 509 510
f 511 512 513
f 512 514 513
f 515 516 517
f 516 518 517
f 519 520 521
f 520 522 521
f 523 524 525
f 526 527 528
f 527 529 528
f 530 531 532
f 531 533 532
f 534 535 536
f 537 538 539
f 540 541 542
f 543 544 545
o mesh_003
v 59 83 0
v 102 14 0
v 35 80 -39
v 72 19 -40
v 102 14 0
v 121 -63 0
v 72 19 -40
v 110 -70 -18
v 121 -63 0
v 121 -126 0
v 110 -70 -18
v 115 -125 -10
v -12 121 0
v 59 83 0
v -8 114 -14
v 35 80 -39
v 2 9 -7
v 2 14 0
v 43 15 -14
v 36 23 0
v 6 -6 -4
v 2 9 -7
v 55 0 -11
v 43 15 -14
v 6 -9 0
v 6 -6 -4
v 55 -6 0
v 55 0 -11
v 2 9 -7
v 6 -6 -4
v -5 4 0
v -1 -5 0
v 2 14 0
v 2 9 -7
v -5 4 0
v 6 -6 -4
v 6 -9 0
v -1 -5 0
v 112 -126 0
v 112 -125 -3
v 118 -126 0
v 115 -125 -10
v 118 -126 0
v 112 -125 -3
v 55 -6 0
v 55 0 -11
v 82 -31 0
v 80 -15 -16
v 36 51 0
v 43 15 -14
v 36 23 0
v 55 0 -11
v 43 15 -14
v 80 -15 -16
v 72 19 -40
v 118 -126 0
v 115 -125 -10
v 121 -126 0
v 72 19 -40
v 36 51 0
v 35 80 -39
v 43 15 -14
v 36 51 0
v 72 19 -40
v 80 -15 -16
v 105 -72 -6
v 82 -31 0
v 102 -73 0
v 72 19 -40
v 110 -70 -18
v 80 -15 -16
v 105 -72 -6
v 105 -72 -6
v 112 -125 -3
v 102 -73 0
v 112 -126 0
v 110 -70 -18
v 115 -125 -10
v 105 -72 -6
v 112 -125 -3
v 36 51 0
v -12 121 0
v -8 114 -14
v 36 51 0
v -8 114 -14
v 35 80 -39
v 59 83 0
v 35 80 39
v 102 14 0
v 72 19 40
v 102 14 0
v 72 19 40
v 121 -63 0
v 110 -70 18
v 121 -63 0
v 110 -70 18
v 121 -126 0
v 115 -125 10
v -12 121 0
v -8 114 14
v 59 83 0
v 35 80 39
v 2 9 7
v 43 15 14
v 2 14 0
v 36 23 0
v 6 -6 4
v 55 0 11
v 2 9 7
v 43 15 14
v 6 -9 0
v 55 -6 0
v 6 -6 4
v 55 0 11
v 2 9 7
v -5 4 0
v 6 -6 4
v -1 -5 0
v 2 14 0
v -5 4 0
v 2 9 7
v 6 -6 4
v -1 -5 0
v 6 -9 0
v 112 -126 0
v 118 -126 0
v 112 -125 3
v 115 -125 10
v 112 -125 3
v 118 -126 0
v 55 -6 0
v 82 -31 0
v 55 0 11
v 80 -15 16
v 36 51 0
v 36 23 0
v 43 15 14
v 55 0 11
v 80 -15 16
v 43 15 14
v 72 19 40
v 118 -126 0
v 121 -126 0
v 115 -125 10
v 72 19 40
v 35 80 39
v 36 51 0
v 43 15 14
v 72 19 40
v 36 51 0
v 80 -15 16
v 82 -31 0
v 105 -72 6
v 102 -73 0
v 72 19 40
v 80 -15 16
v 110 -70 18
v 105 -72 6
v 105 -72 6
v 102 -73 0
v 112 -125 3
v 112 -126 0
v 110 -70 18
v 105 -72 6
v 115 -125 10
v 112 -125 3
v 36 51 0
v -8 114 14
v -12 121 0
v 36 51 0
v 35 80 39
v -8 114 14
f 546 547 548
f 547 549 548
f 550 551 552
f 551 553 552
f 554 555 556
f 555 557 556
f 558 559 560
f 559 561 560
f 562 563 564
f 563 565 564
f 566 567 568
f 567 569 568
f 570 571 572
f 571 573 572
f 574 575 576
f 575 577 576
f 578 579 580
f 581 582 583
f 584 585 586
f 587 588 589
f 590 591 592
f 591 593 592
f 594 595 596
f 597 598 599
f 598 600 599
f 601 602 603
f 604 605 606
f 607 608 609
f 610 611 612
f 611 613 612
f 614 615 616
f 615 617 616
f 618 619 620
f 619 621 620
f 622 623 624
f 623 625 624
f 626 627 628
f 629 630 631
f 632 633 634
f 633 635 634
f 636 637 638
f 637 639 638
f 640 641 642
f 641 643 642
f 644 645 646
f 645 647 646
f 648 649 650
f 649 651 650
f 652 653 654
f 653 655 654
f 656 657 658
f 657 659 658
f 660 661 662
f 661 663 662
f 664 665 666
f 667 668 669
f 670 671 672
f 673 674 675
f 676 677 678
f 677 679 678
f 680 681 682
f 683 684 685
f 684 686 685
f 687 688 689
f 690 691 692
f 693 694 695
f 696 697 698
f 697 699 698
f 700 701 702
f 701 703 702
f 704 705 706
f 705 707 706
f 708 709 710
f 709 711 710
f 712 713 714
f 715 716 717
o mesh_004
v 21 -73 0
v 17 -54 -6
v 63 -26 0
v 17 -54 6
v 21 -73 0
v 63 -26 0
v 19 -36 0
v 17 -54 6
v 63 -26 0
v 17 -54 -6
v 19 -36 0
v 63 -26 0
v 8 -91 0
v -9 -82 -28
v 19 -79 0
v -1 9 0
v 14 -1 0
v 0 -2 -14
v 8 -91 0
v -15 -92 0
v -9 -82 -28
v -3 -42 -22
v -15 -92 0
v -27 -44 0
v -1 9 0
v 0 -2 -14
v -19 -16 0
v 8 -91 0
v -9 -82 28
v -15 -92 0
v -3 -42 22
v -15 -92 0
v -9 -82 28
v -1 9 0
v -19 -16 0
v 0 -2 14
v 8 -91 0
v 19 -79 0
v -9 -82 28
v -1 9 0
v 0 -2 14
v 14 -1 0
v -15 -92 0
v -3 -42 22
v -27 -44 0
v -15 -92 0
v -3 -42 -22
v -9 -82 -28
v -9 -82 -28
v -3 -42 -22
v 17 -54 -6
v -9 -82 28
v 17 -54 6
v -3 -42 22
v 19 -79 0
v 21 -73 0
v -9 -82 28
v 17 -54 6
v 17 -54 -6
v 21 -73 0
v -9 -82 -28
v 19 -79 0
v 17 -54 6
v 19 -36 0
v -3 -42 22
v 17 -54 -6
v -3 -42 -22
v 19 -36 0
v 19 -36 0
v 14 -1 0
v -3 -42 22
v 0 -2 14
v 0 -2 -14
v 14 -1 0
v -3 -42 -22
v 19 -36 0
v 0 -2 14
v -19 -16 0
v -3 -42 22
v -27 -44 0
v -27 -44 0
v -19 -16 0
v -3 -42 -22
v 0 -2 -14
f 718 719 720
f 721 722 723
f 724 725 726
f 727 728 729
f 730 731 732
f 733 734 735
f 736 737 738
f 739 740 741
f 742 743 744
f 745 746 747
f 748 749 750
f 751 752 753
f 754 755 756
f 757 758 759
f 760 761 762
f 763 764 765
f 766 767 768
f 769 770 771
f 772 773 774
f 773 775 774
f 776 777 778
f 777 779 778
f 780 781 782
f 783 784 785
f 786 787 788
f 787 789 788
f 790 791 792
f 791 793 792
f 794 795 796
f 795 797 796
f 798 799 800
f 799 801 800
o mesh_005
v 24 -36 0
v 22 -23 -5
v 37 -6 0
v 22 -23 5
v 24 -36 0
v 37 -6 0
v 22 -23 -5
v 24 -14 0
v 37 -6 0
v 24 -14 0
v 22 -23 5
v 37 -6 0
v 24 -36 0
v 14 -44 0
v 22 -23 -5
v 15 -29 -5
v 22 -23 5
v 15 -29 5
v 24 -36 0
v 14 -44 0
v 24 -14 0
v 17 -16 0
v 22 -23 5
v 15 -29 5
v 22 -23 -5
v 15 -29 -5
v 24 -14 0
v 17 -16 0
v 13 -17 -12
v -2 -46 -33
v 0 -20 -29
v 0 -20 -29
v -2 -46 -33
v -12 -15 -25
v -14 -42 -30
v -12 -15 -25
v -14 -42 -30
v -15 -11 0
v -15 -45 9
v -15 -11 0
v -31 -20 12
v -6 -9 25
v -25 -20 35
v -6 -9 25
v -16 -53 35
v 1 -20 27
v -9 -55 34
v 1 -20 27
v -9 -55 34
v 13 -17 15
v 1 -42 26
v -24 -69 -32
v -14 -42 -30
v -12 -75 -35
v -2 -46 -33
v -26 -75 0
v -15 -45 9
v -24 -69 -32
v -14 -42 -30
v -21 -63 32
v -16 -53 35
v -26 -75 0
v -15 -45 9
v -14 -67 31
v -9 -55 34
v -21 -63 32
v -16 -53 35
v -14 -67 31
v 1 -42 26
v -9 -55 34
v 15 5 12
v 13 -17 15
v 19 8 0
v 17 -16 0
v 19 8 0
v 17 -16 0
v 15 5 -12
v 13 -17 -12
v 15 5 -12
v 13 -17 -12
v 5 -1 -21
v 0 -20 -29
v 5 -1 -21
v 0 -20 -29
v -3 -3 -21
v -12 -15 -25
v -3 -3 -21
v -12 -15 -25
v -9 -3 0
v -15 -11 0
v 5 -1 25
v 1 -20 27
v 15 5 12
v 13 -17 15
v -9 -3 0
v -15 -11 0
v -4 -3 12
v -6 -9 25
v 5 -1 25
v -6 -9 25
v 1 -20 27
v 15 -29 5
v 17 -16 0
v 13 -17 15
v 15 -29 5
v 13 -17 15
v 14 -44 0
v 8 -54 0
v 17 -16 0
v 15 -29 -5
v 13 -17 -12
v -31 -20 12
v -15 -11 0
v -15 -45 9
v -25 -20 35
v -16 -53 35
v -6 -9 25
v -6 -9 25
v 5 -1 25
v -4 -3 12
v 14 -70 26
v 13 -17 15
v 1 -42 26
v 8 -54 0
v 13 -17 15
v 20 -73 15
v 20 -73 15
v 13 -17 15
v 14 -70 26
v -2 -46 -33
v 13 -17 -12
v 9 -71 -26
v 9 -71 -26
v 13 -17 -12
v 20 -73 -15
v -12 -75 -35
v -2 -46 -33
v 9 -71 -26
v 20 -73 -15
v 13 -17 -12
v 8 -54 0
v -21 -63 32
v -26 -75 0
v -14 -67 31
v -9 -83 0
v -9 -83 0
v -26 -75 0
v -12 -75 -35
v -24 -69 -32
v -9 -83 0
v 8 -54 0
v 20 -73 15
v -9 -83 0
v 20 -73 -15
v 8 -54 0
v 14 -70 26
v 1 -42 26
v -14 -67 31
v 8 -54 0
v 13 -17 -12
v 14 -44 0
v 15 -29 -5
v 19 8 0
v 5 -1 0
v 15 5 12
v 5 -1 25
v 5 -1 -21
v 5 -1 0
v 15 5 -12
v 19 8 0
v 5 -1 25
v 5 -1 0
v -4 -3 12
v -9 -3 0
v -9 -3 0
v 5 -1 0
v -3 -3 -21
v 5 -1 -21
f 802 803 804
f 805 806 807
f 808 809 810
f 811 812 813
f 814 815 816
f 815 817 816
f 818 819 820
f 819 821 820
f 822 823 824
f 823 825 824
f 826 827 828
f 827 829 828
f 830 831 832
f 833 834 835
f 834 836 835
f 837 838 839
f 838 840 839
f 841 842 843
f 842 844 843
f 845 846 847
f 846 848 847
f 849 850 851
f 850 852 851
f 853 854 855
f 854 856 855
f 857 858 859
f 858 860 859
f 861 862 863
f 862 864 863
f 865 866 867
f 866 868 867
f 869 870 871
f 872 873 874
f 873 875 874
f 876 877 878
f 877 879 878
f 880 881 882
f 881 883 882
f 884 885 886
f 885 887 886
f 888 889 890
f 889 891 890
f 892 893 894
f 893 895 894
f 896 897 898
f 897 899 898
f 900 901 902
f 903 904 905
f 906 907 908
f 907 909 908
f 910 911 912
f 913 914 915
f 916 917 918
f 919 920 921
f 922 923 924
f 925 926 927
f 928 929 930
f 931 932 933
f 934 935 936
f 937 938 939
f 940 941 942
f 943 944 945
f 944 946 945
f 947 948 949
f 948 950 949
f 951 952 953
f 954 955 956
f 957 958 959
f 960 961 962
f 961 963 962
f 964 965 966
f 965 967 966
f 968 969 970
f 969 971 970
f 972 973 974
f 973 975 974
f 976 977 978
f 977 979 978
o mesh_006
v -15 -7 11
v 0 -25 5
v -14 -25 20
v 0 -31 8
v 0 11 16
v -15 -7 11
v 0 -20 33
v -14 -25 20
v 15 -7 11
v 0 11 16
v 14 -25 20
v 0 -20 33
v 0 -25 5
v 15 -7 11
v 0 -31 8
v 14 -25 20
f 980 981 982
f 981 983 982
f 984 985 986
f 985 987 986
f 988 989 990
f 989 991 990
f 992 993 994
f 993 995 994
o mesh_007
v 0 -16 -11
v 15 -7 2
v 0 -39 -9
v 12 -43 2
v -15 -7 2
v 0 -16 -11
v -12 -43 2
v 0 -39 -9
v 0 2 15
v -15 -7 2
v 0 -48 14
v -12 -43 2
v 15 -7 2
v 0 2 15
v 12 -43 2
v 0 -48 14
f 996 997 998
f 997 999 998
f 1000 1001 1002
f 1001 1003 1002
f 1004 1005 1006
f 1005 1007 1006
f 1008 1009 1010
f 1009 1011 1010
o mesh_008
v 0 -16 -11
v 15 -7 2
v 0 -39 -9
v 12 -43 2
v -15 -7 2
v 0 -16 -11
v -12 -43 2
v 0 -39 -9
v 0 2 15
v -15 -7 2
v 0 -48 14
v -12 -43 2
v 15 -7 2
v 0 2 15
v 12 -43 2
v 0 -48 14
f 1012 1013 1014
f 1013 1015 1014
f 1016 1017 1018
f 1017 1019 1018
f 1020 1021 1022
f 1021 1023 1022
f 1024 1025 1026
f 1025 1027 1026
o mesh_009
v -8 -4 0
v 0 -8 -5
v -13 -6 1
v 0 -13 -8
v 0 0 7
v -8 -4 0
v 0 1 12
v -13 -6 1
v 8 -4 0
v 0 0 7
v 13 -6 1
v 0 1 12
v 0 -8 -5
v 8 -4 0
v 0 -13 -8
v 13 -6 1
v 13 -5 1
v 8 -34 4
v 0 -13 -8
v 0 -32 -2
v 0 -13 -8
v 0 -32 -2
v -13 -5 1
v -8 -34 4
v -13 -5 1
v -8 -34 4
v 0 1 12
v 0 -36 12
v 0 1 12
v 0 -36 12
v 13 -5 1
v 8 -34 4
v 8 -34 4
v 0 -66 -10
v 0 -32 -2
v 0 -66 -10
v 0 -32 -2
v 0 -66 -10
v -8 -34 4
v 0 -66 -10
v -8 -34 4
v 0 -66 -10
v 0 -36 12
v 0 -66 -10
v 0 -36 12
v 0 -66 -10
v 8 -34 4
v 0 -66 -10
f 1028 1029 1030
f 1029 1031 1030
f 1032 1033 1034
f 1033 1035 1034
f 1036 1037 1038
f 1037 1039 1038
f 1040 1041 1042
f 1041 1043 1042
f 1044 1045 1046
f 1045 1047 1046
f 1048 1049 1050
f 1049 1051 1050
f 1052 1053 1054
f 1053 1055 1054
f 1056 1057 1058
f 1057 1059 1058
f 1060 1061 1062
f 1061 1063 1062
f 1064 1065 1066
f 1065 1067 1066
f 1068 1069 1070
f 1069 1071 1070
f 1072 1073 1074
f 1073 1075 1074
o mesh_010
v 0 -5 -2
v 7 -3 5
v 0 -10 -8
v 13 -6 5
v -7 -3 5
v 0 -5 -2
v -13 -6 5
v 0 -10 -8
v 0 0 13
v -7 -3 5
v 0 -1 18
v -13 -6 5
v 7 -3 5
v 0 0 13
v 13 -6 5
v 0 -1 18
v 13 -5 5
v 8 -31 -3
v 0 -10 -8
v 0 -27 -10
v 0 -10 -8
v 0 -27 -10
v -13 -5 5
v -8 -31 -3
v -13 -5 5
v -8 -31 -3
v 0 -1 18
v 0 -35 3
v 0 -1 18
v 0 -35 3
v 13 -5 5
v 8 -31 -3
v 8 -31 -3
v 0 -58 -28
v 0 -27 -10
v 0 -58 -28
v 0 -27 -10
v 0 -58 -28
v -8 -31 -3
v 0 -58 -28
v -8 -31 -3
v 0 -58 -28
v 0 -35 3
v 0 -58 -28
v 0 -35 3
v 0 -58 -28
v 8 -31 -3
v 0 -58 -28
f 1076 1077 1078
f 1077 1079 1078
f 1080 1081 1082
f 1081 1083 1082
f 1084 1085 1086
f 1085 1087 1086
f 1088 1089 1090
f 1089 1091 1090
f 1092 1093 1094
f 1093 1095 1094
f 1096 1097 1098
f 1097 1099 1098
f 1100 1101 1102
f 1101 1103 1102
f 1104 1105 1106
f 1105 1107 1106
f 1108 1109 1110
f 1109 1111 1110
f 1112 1113 1114
f 1113 1115 1114
f 1116 1117 1118
f 1117 1119 1118
f 1120 1121 1122
f 1121 1123 1122
o mesh_011
v 0 -5 -2
v 8 -3 5
v 0 -10 -8
v 13 -6 5
v -8 -3 5
v 0 -5 -2
v -13 -6 5
v 0 -10 -8
v 0 0 13
v -8 -3 5
v 0 -1 18
v -13 -6 5
v 8 -3 5
v 0 0 13
v 13 -6 5
v 0 -1 18
v 13 -5 5
v 8 -31 -3
v 0 -10 -8
v 0 -27 -10
v 0 -10 -8
v 0 -27 -10
v -13 -5 5
v -8 -31 -3
v -13 -5 5
v -8 -31 -3
v 0 -1 18
v 0 -35 3
v 0 -1 18
v 0 -35 3
v 13 -5 5
v 8 -31 -3
v 8 -31 -3
v 0 -58 -28
v 0 -27 -10
v 0 -58 -28
v 0 -27 -10
v 0 -58 -28
v -8 -31 -3
v 0 -58 -28
v -8 -31 -3
v 0 -58 -28
v 0 -35 3
v 0 -58 -28
v 0 -35 3
v 0 -58 -28
v 8 -31 -3
v 0 -58 -28
f 1124 1125 1126
f 1125 1127 1126
f 1128 1129 1130
f 1129 1131 1130
f 1132 1133 1134
f 1133 1135 1134
f 1136 1137 1138
f 1137 1139 1138
f 1140 1141 1142
f 1141 1143 1142
f 1144 1145 1146
f 1145 1147 1146
f 1148 1149 1150
f 1149 1151 1150
f 1152 1153 1154
f 1153 1155 1154
f 1156 1157 1158
f 1157 1159 1158
f 1160 1161 1162
f 1161 1163 1162
f 1164 1165 1166
f 1165 1167 1166
f 1168 1169 1170
f 1169 1171 1170
o mesh_012
v -59 83 0
v -35 80 -39
v -102 14 0
v -72 19 -40
v -102 14 0
v -72 19 -40
v -121 -63 0
v -110 -70 -18
v -121 -63 0
v -110 -70 -18
v -121 -126 0
v -115 -125 -10
v 12 121 0
v 8 114 -14
v -59 83 0
v -35 80 -39
v -2 9 -7
v -43 15 -14
v -2 14 0
v -36 23 0
v -6 -6 -4
v -55 0 -11
v -2 9 -7
v -43 15 -14
v -6 -9 0
v -55 -6 0
v -6 -6 -4
v -55 0 -11
v -2 9 -7
v 5 4 0
v -6 -6 -4
v 1 -5 0
v -2 14 0
v 5 4 0
v -2 9 -7
v -6 -6 -4
v 1 -5 0
v -6 -9 0
v -112 -126 0
v -118 -126 0
v -112 -125 -3
v -115 -125 -10
v -112 -125 -3
v -118 -126 0
v -55 -6 0
v -82 -31 0
v -55 0 -11
v -80 -15 -16
v -36 51 0
v -36 23 0
v -43 15 -14
v -55 0 -11
v -80 -15 -16
v -43 15 -14
v -72 19 -40
v -118 -126 0
v -121 -126 0
v -115 -125 -10
v -72 19 -40
v -35 80 -39
v -36 51 0
v -43 15 -14
v -72 19 -40
v -36 51 0
v -80 -15 -16
v -82 -31 0
v -105 -72 -6
v -102 -73 0
v -72 19 -40
v -80 -15 -16
v -110 -70 -18
v -105 -72 -6
v -105 -72 -6
v -102 -73 0
v -112 -125 -3
v -112 -126 0
v -110 -70 -18
v -105 -72 -6
v -115 -125 -10
v -112 -125 -3
v -36 51 0
v 8 114 -14
v 12 121 0
v -36 51 0
v -35 80 -39
v 8 114 -14
v -59 83 0
v -102 14 0
v -35 80 39
v -72 19 40
v -102 14 0
v -121 -63 0
v -72 19 40
v -110 -70 18
v -121 -63 0
v -121 -126 0
v -110 -70 18
v -115 -125 10
v 12 121 0
v -59 83 0
v 8 114 14
v -35 80 39
v -2 9 7
v -2 14 0
v -43 15 14
v -36 23 0
v -6 -6 4
v -2 9 7
v -55 0 11
v -43 15 14
v -6 -9 0
v -6 -6 4
v -55 -6 0
v -55 0 11
v -2 9 7
v -6 -6 4
v 5 4 0
v 1 -5 0
v -2 14 0
v -2 9 7
v 5 4 0
v -6 -6 4
v -6 -9 0
v 1 -5 0
v -112 -126 0
v -112 -125 3
v -118 -126 0
v -115 -125 10
v -118 -126 0
v -112 -125 3
v -55 -6 0
v -55 0 11
v -82 -31 0
v -80 -15 16
v -36 51 0
v -43 15 14
v -36 23 0
v -55 0 11
v -43 15 14
v -80 -15 16
v -72 19 40
v -118 -126 0
v -115 -125 10
v -121 -126 0
v -72 19 40
v -36 51 0
v -35 80 39
v -43 15 14
v -36 51 0
v -72 19 40
v -80 -15 16
v -105 -72 6
v -82 -31 0
v -102 -73 0
v -72 19 40
v -110 -70 18
v -80 -15 16
v -105 -72 6
v -105 -72 6
v -112 -125 3
v -102 -73 0
v -112 -126 0
v -110 -70 18
v -115 -125 10
v -105 -72 6
v -112 -125 3
v -36 51 0
v 12 121 0
v 8 114 14
v -36 51 0
v 8 114 14
v -35 80 39
f 1172 1173 1174
f 1173 1175 1174
f 1176 1177 1178
f 1177 1179 1178
f 1180 1181 1182
f 1181 1183 1182
f 1184 1185 1186
f 1185 1187 1186
f 1188 1189 1190
f 1189 1191 1190
f 1192 1193 1194
f 1193 1195 1194
f 1196 1197 1198
f 1197 1199 1198
f 1200 1201 1202
f 1201 1203 1202
f 1204 1205 1206
f 1207 1208 1209
f 1210 1211 1212
f 1213 1214 1215
f 1216 1217 1218
f 1217 1219 1218
f 1220 1221 1222
f 1223 1224 1225
f 1224 1226 1225
f 1227 1228 1229
f 1230 1231 1232
f 1233 1234 1235
f 1236 1237 1238
f 1237 1239 1238
f 1240 1241 1242
f 1241 1243 1242
f 1244 1245 1246
f 1245 1247 1246
f 1248 1249 1250
f 1249 1251 1250
f 1252 1253 1254
f 1255 1256 1257
f 1258 1259 1260
f 1259 1261 1260
f 1262 1263 1264
f 1263 1265 1264
f 1266 1267 1268
f 1267 1269 1268
f 1270 1271 1272
f 1271 1273 1272
f 1274 1275 1276
f 1275 1277 1276
f 1278 1279 1280
f 1279 1281 1280
f 1282 1283 1284
f 1283 1285 1284
f 1286 1287 1288
f 1287 1289 1288
f 1290 1291 1292
f 1293 1294 1295
f 1296 1297 1298
f 1299 1300 1301
f 1302 1303 1304
f 1303 1305 1304
f 1306 1307 1308
f 1309 1310 1311
f 1310 1312 1311
f 1313 1314 1315
f 1316 1317 1318
f 1319 1320 1321
f 1322 1323 1324
f 1323 1325 1324
f 1326 1327 1328
f 1327 1329 1328
f 1330 1331 1332
f 1331 1333 1332
f 1334 1335 1336
f 1335 1337 1336
f 1338 1339 1340
f 1341 1342 1343
o mesh_013
v -21 -73 0
v -17 -54 -6
v -63 -26 0
v -17 -54 6
v -21 -73 0
v -63 -26 0
v -19 -36 0
v -17 -54 6
v -63 -26 0
v -17 -54 -6
v -19 -36 0
v -63 -26 0
v -8 -91 0
v 9 -82 -28
v -19 -79 0
v 1 9 0
v -14 -1 0
v 0 -2 -14
v -8 -91 0
v 15 -92 0
v 9 -82 -28
v 3 -42 -22
v 15 -92 0
v 27 -44 0
v 1 9 0
v 0 -2 -14
v 19 -16 0
v -8 -91 0
v 9 -82 28
v 15 -92 0
v 3 -42 22
v 15 -92 0
v 9 -82 28
v 1 9 0
v 19 -16 0
v 0 -2 14
v -8 -91 0
v -19 -79 0
v 9 -82 28
v 1 9 0
v 0 -2 14
v -14 -1 0
v 15 -92 0
v 3 -42 22
v 27 -44 0
v 15 -92 0
v 3 -42 -22
v 9 -82 -28
v 9 -82 -28
v 3 -42 -22
v -17 -54 -6
v 9 -82 28
v -17 -54 6
v 3 -42 22
v -19 -79 0
v -21 -73 0
v 9 -82 28
v -17 -54 6
v -17 -54 -6
v -21 -73 0
v 9 -82 -28
v -19 -79 0
v -17 -54 6
v -19 -36 0
v 3 -42 22
v -17 -54 -6
v 3 -42 -22
v -19 -36 0
v -19 -36 0
v -14 -1 0
v 3 -42 22
v 0 -2 14
v 0 -2 -14
v -14 -1 0
v 3 -42 -22
v -19 -36 0
v 0 -2 14
v 19 -16 0
v 3 -42 22
v 27 -44 0
v 27 -44 0
v 19 -16 0
v 3 -42 -22
v 0 -2 -14
f 1344 1345 1346
f 1347 1348 1349
f 1350 1351 1352
f 1353 1354 1355
f 1356 1357 1358
f 1359 1360 1361
f 1362 1363 1364
f 1365 1366 1367
f 1368 1369 1370
f 1371 1372 1373
f 1374 1375 1376
f 1377 1378 1379
f 1380 1381 1382
f 1383 1384 1385
f 1386 1387 1388
f 1389 1390 1391
f 1392 1393 1394
f 1395 1396 1397
f 1398 1399 1400
f 1399 1401 1400
f 1402 1403 1404
f 1403 1405 1404
f 1406 1407 1408
f 1409 1410 1411
f 1412 1413 1414
f 1413 1415 1414
f 1416 1417 1418
f 1417 1419 1418
f 1420 1421 1422
f 1421 1423 1422
f 1424 1425 1426
f 1425 1427 1426
o mesh_014
v -24 -36 0
v -37 -6 0
v -22 -23 -5
v -22 -23 5
v -37 -6 0
v -24 -36 0
v -22 -23 -5
v -37 -6 0
v -24 -14 0
v -24 -14 0
v -37 -6 0
v -22 -23 5
v -24 -36 0
v -22 -23 -5
v -14 -44 0
v -15 -29 -5
v -22 -23 5
v -24 -36 0
v -15 -29 5
v -14 -44 0
v -24 -14 0
v -22 -23 5
v -17 -16 0
v -15 -29 5
v -22 -23 -5
v -24 -14 0
v -15 -29 -5
v -17 -16 0
v -13 -17 -12
v 0 -20 -29
v 2 -46 -33
v 0 -20 -29
v 12 -15 -25
v 2 -46 -33
v 14 -42 -30
v 12 -15 -25
v 15 -11 0
v 14 -42 -30
v 15 -45 9
v 15 -11 0
v 6 -9 25
v 31 -20 12
v 25 -20 35
v 6 -9 25
v -1 -20 27
v 16 -53 35
v 9 -55 34
v -1 -20 27
v -13 -17 15
v 9 -55 34
v -1 -42 26
v 24 -69 -32
v 12 -75 -35
v 14 -42 -30
v 2 -46 -33
v 26 -75 0
v 24 -69 -32
v 15 -45 9
v 14 -42 -30
v 21 -63 32
v 26 -75 0
v 16 -53 35
v 15 -45 9
v 14 -67 31
v 21 -63 32
v 9 -55 34
v 16 -53 35
v 14 -67 31
v 9 -55 34
v -1 -42 26
v -15 5 12
v -19 8 0
v -13 -17 15
v -17 -16 0
v -19 8 0
v -15 5 -12
v -17 -16 0
v -13 -17 -12
v -15 5 -12
v -5 -1 -21
v -13 -17 -12
v 0 -20 -29
v -5 -1 -21
v 3 -3 -21
v 0 -20 -29
v 12 -15 -25
v 3 -3 -21
v 9 -3 0
v 12 -15 -25
v 15 -11 0
v -5 -1 25
v -15 5 12
v -1 -20 27
v -13 -17 15
v 9 -3 0
v 4 -3 12
v 15 -11 0
v 6 -9 25
v -5 -1 25
v -1 -20 27
v 6 -9 25
v -15 -29 5
v -13 -17 15
v -17 -16 0
v -15 -29 5
v -14 -44 0
v -13 -17 15
v -8 -54 0
v -17 -16 0
v -13 -17 -12
v -15 -29 -5
v 31 -20 12
v 15 -45 9
v 15 -11 0
v 25 -20 35
v 6 -9 25
v 16 -53 35
v 6 -9 25
v 4 -3 12
v -5 -1 25
v -14 -70 26
v -1 -42 26
v -13 -17 15
v -8 -54 0
v -20 -73 15
v -13 -17 15
v -20 -73 15
v -14 -70 26
v -13 -17 15
v 2 -46 -33
v -9 -71 -26
v -13 -17 -12
v -9 -71 -26
v -20 -73 -15
v -13 -17 -12
v 12 -75 -35
v -9 -71 -26
v 2 -46 -33
v -20 -73 -15
v -8 -54 0
v -13 -17 -12
v 21 -63 32
v 14 -67 31
v 26 -75 0
v 9 -83 0
v 9 -83 0
v 12 -75 -35
v 26 -75 0
v 24 -69 -32
v 9 -83 0
v -20 -73 15
v -8 -54 0
v 9 -83 0
v -8 -54 0
v -20 -73 -15
v -14 -70 26
v 14 -67 31
v -1 -42 26
v -8 -54 0
v -14 -44 0
v -13 -17 -12
v -15 -29 -5
v -19 8 0
v -15 5 12
v -5 -1 0
v -5 -1 25
v -5 -1 -21
v -15 5 -12
v -5 -1 0
v -19 8 0
v -5 -1 25
v 4 -3 12
v -5 -1 0
v 9 -3 0
v 9 -3 0
v 3 -3 -21
v -5 -1 0
v -5 -1 -21
f 1428 1429 1430
f 1431 1432 1433
f 1434 1435 1436
f 1437 1438 1439
f 1440 1441 1442
f 1441 1443 1442
f 1444 1445 1446
f 1445 1447 1446
f 1448 1449 1450
f 1449 1451 1450
f 1452 1453 1454
f 1453 1455 1454
f 1456 1457 1458
f 1459 1460 1461
f 1460 1462 1461
f 1463 1464 1465
f 1464 1466 1465
f 1467 1468 1469
f 1468 1470 1469
f 1471 1472 1473
f 1472 1474 1473
f 1475 1476 1477
f 1476 1478 1477
f 1479 1480 1481
f 1480 1482 1481
f 1483 1484 1485
f 1484 1486 1485
f 1487 1488 1489
f 1488 1490 1489
f 1491 1492 1493
f 1492 1494 1493
f 1495 1496 1497
f 1498 1499 1500
f 1499 1501 1500
f 1502 1503 1504
f 1503 1505 1504
f 1506 1507 1508
f 1507 1509 1508
f 1510 1511 1512
f 1511 1513 1512
f 1514 1515 1516
f 1515 1517 1516
f 1518 1519 1520
f 1519 1521 1520
f 1522 1523 1524
f 1523 1525 1524
f 1526 1527 1528
f 1529 1530 1531
f 1532 1533 1534
f 1533 1535 1534
f 1536 1537 1538
f 1539 1540 1541
f 1542 1543 1544
f 1545 1546 1547
f 1548 1549 1550
f 1551 1552 1553
f 1554 1555 1556
f 1557 1558 1559
f 1560 1561 1562
f 1563 1564 1565
f 1566 1567 1568
f 1569 1570 1571
f 1570 1572 1571
f 1573 1574 1575
f 1574 1576 1575
f 1577 1578 1579
f 1580 1581 1582
f 1583 1584 1585
f 1586 1587 1588
f 1587 1589 1588
f 1590 1591 1592
f 1591 1593 1592
f 1594 1595 1596
f 1595 1597 1596
f 1598 1599 1600
f 1599 1601 1600
f 1602 1603 1604
f 1603 1605 1604
o mesh_015
v 15 -7 11
v 14 -25 20
v 0 -25 5
v 0 -31 8
v 0 11 16
v 0 -20 33
v 15 -7 11
v 14 -25 20
v -15 -7 11
v -14 -25 20
v 0 11 16
v 0 -20 33
v 0 -25 5
v 0 -31 8
v -15 -7 11
v -14 -25 20
f 1606 1607 1608
f 1607 1609 1608
f 1610 1611 1612
f 1611 1613 1612
f 1614 1615 1616
f 1615 1617 1616
f 1618 1619 1620
f 1619 1621 1620
o mesh_016
v 0 -16 -11
v 0 -39 -9
v -15 -7 2
v -12 -43 2
v 15 -7 2
v 12 -43 2
v 0 -16 -11
v 0 -39 -9
v 0 2 15
v 0 -48 14
v 15 -7 2
v 12 -43 2
v -15 -7 2
v -12 -43 2
v 0 2 15
v 0 -48 14
f 1622 1623 1624
f 1623 1625 1624
f 1626 1627 1628
f 1627 1629 1628
f 1630 1631 1632
f 1631 1633 1632
f 1634 1635 1636
f 1635 1637 1636
o mesh_017
v 0 -16 -11
v 0 -39 -9
v -15 -7 2
v -12 -43 2
v 15 -7 2
v 12 -43 2
v 0 -16 -11
v 0 -39 -9
v 0 2 15
v 0 -48 14
v 15 -7 2
v 12 -43 2
v -15 -7 2
v -12 -43 2
v 0 2 15
v 0 -48 14
f 1638 1639 1640
f 1639 1641 1640
f 1642 1643 1644
f 1643 1645 1644
f 1646 1647 1648
f 1647 1649 1648
f 1650 1651 1652
f 1651 1653 1652
o mesh_018
v 8 -4 0
v 13 -6 1
v 0 -8 -5
v 0 -13 -8
v 0 0 7
v 0 1 12
v 8 -4 0
v 13 -6 1
v -8 -4 0
v -13 -6 1
v 0 0 7
v 0 1 12
v 0 -8 -5
v 0 -13 -8
v -8 -4 0
v -13 -6 1
v -13 -5 1
v 0 -13 -8
v -8 -34 4
v 0 -32 -2
v 0 -13 -8
v 13 -5 1
v 0 -32 -2
v 8 -34 4
v 13 -5 1
v 0 1 12
v 8 -34 4
v 0 -36 12
v 0 1 12
v -13 -5 1
v 0 -36 12
v -8 -34 4
v -8 -34 4
v 0 -32 -2
v 0 -66 -10
v 0 -66 -10
v 0 -32 -2
v 8 -34 4
v 0 -66 -10
v 0 -66 -10
v 8 -34 4
v 0 -36 12
v 0 -66 -10
v 0 -66 -10
v 0 -36 12
v -8 -34 4
v 0 -66 -10
v 0 -66 -10
f 1654 1655 1656
f 1655 1657 1656
f 1658 1659 1660
f 1659 1661 1660
f 1662 1663 1664
f 1663 1665 1664
f 1666 1667 1668
f 1667 1669 1668
f 1670 1671 1672
f 1671 1673 1672
f 1674 1675 1676
f 1675 1677 1676
f 1678 1679 1680
f 1679 1681 1680
f 1682 1683 1684
f 1683 1685 1684
f 1686 1687 1688
f 1687 1689 1688
f 1690 1691 1692
f 1691 1693 1692
f 1694 1695 1696
f 1695 1697 1696
f 1698 1699 1700
f 1699 1701 1700
o mesh_019
v 0 -5 -2
v 0 -10 -8
v -7 -3 5
v -13 -6 5
v 7 -3 5
v 13 -6 5
v 0 -5 -2
v 0 -10 -8
v 0 0 13
v 0 -1 18
v 7 -3 5
v 13 -6 5
v -7 -3 5
v -13 -6 5
v 0 0 13
v 0 -1 18
v -13 -5 5
v 0 -10 -8
v -8 -31 -3
v 0 -27 -10
v 0 -10 -8
v 13 -5 5
v 0 -27 -10
v 8 -31 -3
v 13 -5 5
v 0 -1 18
v 8 -31 -3
v 0 -35 3
v 0 -1 18
v -13 -5 5
v 0 -35 3
v -8 -31 -3
v -8 -31 -3
v 0 -27 -10
v 0 -58 -28
v 0 -58 -28
v 0 -27 -10
v 8 -31 -3
v 0 -58 -28
v 0 -58 -28
v 8 -31 -3
v 0 -35 3
v 0 -58 -28
v 0 -58 -28
v 0 -35 3
v -8 -31 -3
v 0 -58 -28
v 0 -58 -28
f 1702 1703 1704
f 1703 1705 1704
f 1706 1707 1708
f 1707 1709 1708
f 1710 1711 1712
f 1711 1713 1712
f 1714 1715 1716
f 1715 1717 1716
f 1718 1719 1720
f 1719 1721 1720
f 1722 1723 1724
f 1723 1725 1724
f 1726 1727 1728
f 1727 1729 1728
f 1730 1731 1732
f 1731 1733 1732
f 1734 1735 1736
f 1735 1737 1736
f 1738 1739 1740
f 1739 1741 1740
f 1742 1743 1744
f 1743 1745 1744
f 1746 1747 1748
f 1747 1749 1748
o mesh_020
v 0 -5 -2
v -8 -3 5
v 0 -10 -8
v -13 -6 5
v 8 -3 5
v 0 -5 -2
v 13 -6 5
v 0 -10 -8
v 0 0 13
v 8 -3 5
v 0 -1 18
v 13 -6 5
v -8 -3 5
v 0 0 13
v -13 -6 5
v 0 -1 18
v -13 -5 5
v -8 -31 -3
v 0 -10 -8
v 0 -27 -10
v 0 -10 -8
v 0 -27 -10
v 13 -5 5
v 8 -31 -3
v 13 -5 5
v 8 -31 -3
v 0 -1 18
v 0 -35 3
v 0 -1 18
v 0 -35 3
v -13 -5 5
v -8 -31 -3
v -8 -31 -3
v 0 -58 -28
v 0 -27 -10
v 0 -58 -28
v 0 -27 -10
v 0 -58 -28
v 8 -31 -3
v 0 -58 -28
v 8 -31 -3
v 0 -58 -28
v 0 -35 3
v 0 -58 -28
v 0 -35 3
v 0 -58 -28
v -8 -31 -3
v 0 -58 -28
v 0 -5 -2
v 0 -10 -8
v -8 -3 5
v -13 -6 5
v 8 -3 5
v 13 -6 5
v 0 -5 -2
v 0 -10 -8
v 0 0 13
v 0 -1 18
v 8 -3 5
v 13 -6 5
v -8 -3 5
v -13 -6 5
v 0 0 13
v 0 -1 18
v -13 -5 5
v 0 -10 -8
v -8 -31 -3
v 0 -27 -10
v 0 -10 -8
v 13 -5 5
v 0 -27 -10
v 8 -31 -3
v 13 -5 5
v 0 -1 18
v 8 -31 -3
v 0 -35 3
v 0 -1 18
v -13 -5 5
v 0 -35 3
v -8 -31 -3
v -8 -31 -3
v 0 -27 -10
v 0 -58 -28
v 0 -58 -28
v 0 -27 -10
v 8 -31 -3
v 0 -58 -28
v 0 -58 -28
v 8 -31 -3
v 0 -35 3
v 0 -58 -28
v 0 -58 -28
v 0 -35 3
v -8 -31 -3
v 0 -58 -28
v 0 -58 -28
f 1750 1751 1752
f 1751 1753 1752
f 1754 1755 1756
f 1755 1757 1756
f 1758 1759 1760
f 1759 1761 1760
f 1762 1763 1764
f 1763 1765 1764
f 1766 1767 1768
f 1767 1769 1768
f 1770 1771 1772
f 1771 1773 1772
f 1774 1775 1776
f 1775 1777 1776
f 1778 1779 1780
f 1779 1781 1780
f 1782 1783 1784
f 1783 1785 1784
f 1786 1787 1788
f 1787 1789 1788
f 1790 1791 1792
f 1791 1793 1792
f 1794 1795 1796
f 1795 1797 1796
f 1798 1799 1800
f 1799 1801 1800
f 1802 1803 1804
f 1803 1805 1804
f 1806 1807 1808
f 1807 1809 1808
f 1810 1811 1812
f 1811 1813 1812
f 1814 1815 1816
f 1815 1817 1816
f 1818 1819 1820
f 1819 1821 1820
f 1822 1823 1824
f 1823 1825 1824
f 1826 1827 1828
f 1827 1829 1828
f 1830 1831 1832
f 1831 1833 1832
f 1834 1835 1836
f 1835 1837 1836
f 1838 1839 1840
f 1839 1841 1840
f 1842 1843 1844
f 1843 1845 1844
o mesh_021
v 0 0 -8
v 0 12 -6
v 7 0 0
v 5 12 0
v 0 12 -6
v 0 21 -6
v 5 12 0
v 5 21 0
v 7 0 0
v 5 12 0
v 0 0 8
v 0 12 6
v 5 12 0
v 5 21 0
v 0 12 6
v 0 21 6
v 0 24 -48
v 0 40 -50
v 3 24 -46
v 5 40 -48
v 0 40 -50
v 0 67 -47
v 5 40 -48
v 3 66 -45
v 0 67 -47
v 0 88 -29
v 3 66 -45
v 2 86 -27
v 4 54 44
v 2 83 23
v 0 54 48
v 0 85 25
v 3 35 53
v 4 54 44
v 0 35 57
v 0 54 48
v 1 15 59
v 3 35 53
v 0 15 61
v 0 35 57
v 6 28 36
v 4 54 44
v 3 35 53
v 2 83 23
v 7 53 0
v 2 93 -2
v 0 19 28
v 6 19 34
v 0 15 61
v 1 15 59
v 7 20 -22
v 0 20 -22
v 3 24 -46
v 0 24 -48
v 2 93 -2
v 0 94 -2
v 2 83 23
v 0 85 25
v 0 94 -2
v 2 93 -2
v 0 88 -29
v 2 86 -27
v 14 20 13
v 5 21 0
v 18 35 0
v 9 25 -19
v 7 20 -22
v 5 40 -48
v 3 24 -46
v 7 20 -22
v 9 25 -19
v 5 21 0
v 7 53 0
v 2 83 23
v 4 54 44
v 11 24 25
v 13 29 9
v 6 28 36
v 8 39 7
v 4 54 44
v 6 28 36
v 7 53 0
v 8 39 7
v 18 35 0
v 7 53 0
v 13 29 9
v 8 39 7
v 14 20 13
v 18 35 0
v 13 29 9
v 5 21 0
v 9 25 -19
v 18 35 0
v 18 35 -9
v 8 52 -8
v 7 53 0
v 18 35 -9
v 18 35 0
v 8 52 -8
v 2 86 -27
v 7 53 0
v 2 93 -2
v 9 25 -19
v 8 52 -8
v 18 35 -9
v 3 66 -45
v 2 86 -27
v 8 52 -8
v 5 40 -48
v 3 66 -45
v 9 25 -19
v 8 52 -8
v 0 21 -6
v 0 20 -22
v 5 21 0
v 7 20 -22
v 11 24 25
v 6 19 34
v 14 20 13
v 11 24 25
v 6 28 36
v 6 19 34
v 6 19 34
v 6 28 36
v 1 15 59
v 3 35 53
v 6 19 34
v 5 21 0
v 14 20 13
v 0 21 6
v 5 21 0
v 0 19 28
v 6 19 34
v 9 13 53
v 14 20 13
v 18 17 18
v 18 26 14
v 9 13 53
v 18 17 18
v 11 24 25
v 9 13 53
v 13 29 9
v 18 26 14
v 9 13 53
v 11 24 25
v 14 20 13
v 13 29 9
v 18 26 14
v 14 20 13
v 18 17 18
v 0 0 -8
v -7 0 0
v 0 12 -6
v -5 12 0
v 0 12 -6
v -5 12 0
v 0 21 -6
v -5 21 0
v -7 0 0
v 0 0 8
v -5 12 0
v 0 12 6
v -5 12 0
v 0 12 6
v -5 21 0
v 0 21 6
v 0 24 -48
v -3 24 -46
v 0 40 -50
v -5 40 -48
v 0 40 -50
v -5 40 -48
v 0 67 -47
v -3 66 -45
v 0 67 -47
v -3 66 -45
v 0 88 -29
v -2 86 -27
v -4 54 44
v 0 54 48
v -2 83 23
v 0 85 25
v -3 35 53
v 0 35 57
v -4 54 44
v 0 54 48
v -1 15 59
v 0 15 61
v -3 35 53
v 0 35 57
v -6 28 36
v -3 35 53
v -4 54 44
v -2 83 23
v -2 93 -2
v -7 53 0
v 0 19 28
v 0 15 61
v -6 19 34
v -1 15 59
v -7 20 -22
v -3 24 -46
v 0 20 -22
v 0 24 -48
v -2 93 -2
v -2 83 23
v 0 94 -2
v 0 85 25
v 0 94 -2
v 0 88 -29
v -2 93 -2
v -2 86 -27
v -14 20 13
v -18 35 0
v -5 21 0
v -9 25 -19
v -5 40 -48
v -7 20 -22
v -3 24 -46
v -7 20 -22
v -5 21 0
v -9 25 -19
v -7 53 0
v -4 54 44
v -2 83 23
v -11 24 25
v -6 28 36
v -13 29 9
v -8 39 7
v -4 54 44
v -7 53 0
v -6 28 36
v -8 39 7
v -18 35 0
v -13 29 9
v -7 53 0
v -8 39 7
v -14 20 13
v -13 29 9
v -18 35 0
v -5 21 0
v -18 35 0
v -9 25 -19
v -18 35 -9
v -8 52 -8
v -18 35 -9
v -7 53 0
v -18 35 0
v -8 52 -8
v -7 53 0
v -2 86 -27
v -2 93 -2
v -9 25 -19
v -18 35 -9
v -8 52 -8
v -3 66 -45
v -8 52 -8
v -2 86 -27
v -5 40 -48
v -9 25 -19
v -3 66 -45
v -8 52 -8
v 0 21 -6
v -5 21 0
v 0 20 -22
v -7 20 -22
v -11 24 25
v -14 20 13
v -6 19 34
v -11 24 25
v -6 19 34
v -6 28 36
v -6 19 34
v -1 15 59
v -6 28 36
v -3 35 53
v -6 19 34
v -14 20 13
v -5 21 0
v 0 21 6
v 0 19 28
v -5 21 0
v -6 19 34
v -9 13 53
v -18 17 18
v -14 20 13
v -18 26 14
v -18 17 18
v -9 13 53
v -11 24 25
v -13 29 9
v -9 13 53
v -18 26 14
v -9 13 53
v -14 20 13
v -11 24 25
v -13 29 9
v -14 20 13
v -18 26 14
v -18 17 18
f 1846 1847 1848
f 1847 1849 1848
f 1850 1851 1852
f 1851 1853 1852
f 1854 1855 1856
f 1855 1857 1856
f 1858 1859 1860
f 1859 1861 1860
f 1862 1863 1864
f 1863 1865 1864
f 1866 1867 1868
f 1867 1869 1868
f 1870 1871 1872
f 1871 1873 1872
f 1874 1875 1876
f 1875 1877 1876
f 1878 1879 1880
f 1879 1881 1880
f 1882 1883 1884
f 1883 1885 1884
f 1886 1887 1888
f 1889 1890 1891
f 1892 1893 1894
f 1893 1895 1894
f 1896 1897 1898
f 1897 1899 1898
f 1900 1901 1902
f 1901 1903 1902
f 1904 1905 1906
f 1905 1907 1906
f 1908 1909 1910
f 1911 1912 1913
f 1912 1914 1913
f 1915 1916 1917
f 1918 1919 1920
f 1921 1922 1923
f 1922 1924 1923
f 1925 1926 1927
f 1926 1928 1927
f 1929 1930 1931
f 1930 1932 1931
f 1933 1934 1935
f 1936 1937 1938
f 1937 1939 1938
f 1940 1941 1942
f 1941 1943 1942
f 1944 1945 1946
f 1945 1947 1946
f 1948 1949 1950
f 1951 1952 1953
f 1954 1955 1956
f 1955 1957 1956
f 1958 1959 1960
f 1959 1961 1960
f 1962 1963 1964
f 1965 1966 1967
f 1968 1969 1970
f 1969 1971 1970
f 1972 1973 1974
f 1975 1976 1977
f 1976 1978 1977
f 1979 1980 1981
f 1982 1983 1984
f 1985 1986 1987
f 1986 1988 1987
f 1989 1990 1991
f 1992 1993 1994
f 1993 1995 1994
f 1996 1997 1998
f 1997 1999 1998
f 2000 2001 2002
f 2001 2003 2002
f 2004 2005 2006
f 2005 2007 2006
f 2008 2009 2010
f 2009 2011 2010
f 2012 2013 2014
f 2013 2015 2014
f 2016 2017 2018
f 2017 2019 2018
f 2020 2021 2022
f 2021 2023 2022
f 2024 2025 2026
f 2025 2027 2026
f 2028 2029 2030
f 2029 2031 2030
f 2032 2033 2034
f 2033 2035 2034
f 2036 2037 2038
f 2039 2040 2041
f 2042 2043 2044
f 2043 2045 2044
f 2046 2047 2048
f 2047 2049 2048
f 2050 2051 2052
f 2051 2053 2052
f 2054 2055 2056
f 2055 2057 2056
f 2058 2059 2060
f 2061 2062 2063
f 2062 2064 2063
f 2065 2066 2067
f 2068 2069 2070
f 2071 2072 2073
f 2072 2074 2073
f 2075 2076 2077
f 2076 2078 2077
f 2079 2080 2081
f 2080 2082 2081
f 2083 2084 2085
f 2086 2087 2088
f 2087 2089 2088
f 2090 2091 2092
f 2091 2093 2092
f 2094 2095 2096
f 2095 2097 2096
f 2098 2099 2100
f 2101 2102 2103
f 2104 2105 2106
f 2105 2107 2106
f 2108 2109 2110
f 2109 2111 2110
f 2112 2113 2114
f 2115 2116 2117
f 2118 2119 2120
f 2119 2121 2120
f 2122 2123 2124
f 2125 2126 2127
f 2126 2128 2127
f 2129 2130 2131
f 2132 2133 2134
f 2135 2136 2137
f 2136 2138 2137
f 2139 2140 2141
f 2142 2143 2144
f 2143 2145 2144
o mesh_022
v 4 -55 -2
v 1 -10 -1
v 4 -55 3
v 1 -10 1
v 4 -55 3
v 1 -10 1
v 0 -55 6
v 0 -10 3
v 0 -55 6
v 0 -10 3
v -4 -55 3
v -1 -10 1
v -4 -55 3
v -1 -10 1
v -4 -55 -2
v -1 -10 -1
v -4 -55 -2
v -1 -10 -1
v 0 -55 -5
v 0 -10 -3
v 0 -55 -5
v 0 -10 -3
v 4 -55 -2
v 1 -10 -1
v 9 -96 0
v 4 -55 -2
v 9 -98 15
v 4 -55 3
v 9 -98 15
v 4 -55 3
v 0 -100 22
v 0 -55 6
v 0 -100 22
v 0 -55 6
v -9 -98 15
v -4 -55 3
v -9 -98 15
v -4 -55 3
v -9 -96 0
v -4 -55 -2
v -9 -96 0
v -4 -55 -2
v 0 -94 -6
v 0 -55 -5
v 0 -94 -6
v 0 -55 -5
v 9 -96 0
v 4 -55 -2
v 3 -107 0
v 9 -96 0
v 3 -108 7
v 9 -98 15
v 3 -108 7
v 9 -98 15
v 0 -109 11
v 0 -100 22
v 0 -109 11
v 0 -100 22
v -3 -108 7
v -9 -98 15
v -3 -108 7
v -9 -98 15
v -3 -107 0
v -9 -96 0
v -3 -107 0
v -9 -96 0
v 0 -106 -3
v 0 -94 -6
v 0 -106 -3
v 0 -94 -6
v 3 -107 0
v 9 -96 0
v 0 -106 -3
v 3 -107 0
v -3 -107 0
v -3 -108 7
v -3 -108 7
v 3 -107 0
v 0 -109 11
v 3 -108 7
f 2146 2147 2148
f 2147 2149 2148
f 2150 2151 2152
f 2151 2153 2152
f 2154 2155 2156
f 2155 2157 2156
f 2158 2159 2160
f 2159 2161 2160
f 2162 2163 2164
f 2163 2165 2164
f 2166 2167 2168
f 2167 2169 2168
f 2170 2171 2172
f 2171 2173 2172
f 2174 2175 2176
f 2175 2177 2176
f 2178 2179 2180
f 2179 2181 2180
f 2182 2183 2184
f 2183 2185 2184
f 2186 2187 2188
f 2187 2189 2188
f 2190 2191 2192
f 2191 2193 2192
f 2194 2195 2196
f 2195 2197 2196
f 2198 2199 2200
f 2199 2201 2200
f 2202 2203 2204
f 2203 2205 2204
f 2206 2207 2208
f 2207 2209 2208
f 2210 2211 2212
f 2211 2213 2212
f 2214 2215 2216
f 2215 2217 2216
f 2218 2219 2220
f 2219 2221 2220
f 2222 2223 2224
f 2223 2225 2224
o mesh_023
v 0 -2 2
v 0 1 -1
v 13 -76 51
v -1 -88 8
v 13 -76 51
v -1 -88 8
v 20 -139 76
v 6 -151 38
v 20 -139 76
v 6 -151 38
v 21 -207 79
v 18 -200 70
v 0 1 -1
v 0 1 -1
v -1 -88 8
v 5 -88 6
v -1 -88 8
v 5 -88 6
v 6 -151 38
v 13 -151 36
v 6 -151 38
v 13 -151 36
v 18 -200 70
v 19 -200 70
v 0 1 -1
v 0 -2 2
v 5 -88 6
v 13 -76 51
v 5 -88 6
v 13 -76 51
v 13 -151 36
v 20 -139 76
v 13 -151 36
v 20 -139 76
v 19 -200 70
v 21 -207 79
f 2226 2227 2228
f 2227 2229 2228
f 2230 2231 2232
f 2231 2233 2232
f 2234 2235 2236
f 2235 2237 2236
f 2238 2239 2240
f 2239 2241 2240
f 2242 2243 2244
f 2243 2245 2244
f 2246 2247 2248
f 2247 2249 2248
f 2250 2251 2252
f 2251 2253 2252
f 2254 2255 2256
f 2255 2257 2256
f 2258 2259 2260
f 2259 2261 2260
o mesh_024
v -4 -55 -2
v -4 -55 3
v -1 -10 -1
v -1 -10 1
v -4 -55 3
v 0 -55 6
v -1 -10 1
v 0 -10 3
v 0 -55 6
v 4 -55 3
v 0 -10 3
v 1 -10 1
v 4 -55 3
v 4 -55 -2
v 1 -10 1
v 1 -10 -1
v 4 -55 -2
v 0 -55 -5
v 1 -10 -1
v 0 -10 -3
v 0 -55 -5
v -4 -55 -2
v 0 -10 -3
v -1 -10 -1
v -9 -96 0
v -9 -98 15
v -4 -55 -2
v -4 -55 3
v -9 -98 15
v 0 -100 22
v -4 -55 3
v 0 -55 6
v 0 -100 22
v 9 -98 15
v 0 -55 6
v 4 -55 3
v 9 -98 15
v 9 -96 0
v 4 -55 3
v 4 -55 -2
v 9 -96 0
v 0 -94 -6
v 4 -55 -2
v 0 -55 -5
v 0 -94 -6
v -9 -96 0
v 0 -55 -5
v -4 -55 -2
v -3 -107 0
v -3 -108 7
v -9 -96 0
v -9 -98 15
v -3 -108 7
v 0 -109 11
v -9 -98 15
v 0 -100 22
v 0 -109 11
v 3 -108 7
v 0 -100 22
v 9 -98 15
v 3 -108 7
v 3 -107 0
v 9 -98 15
v 9 -96 0
v 3 -107 0
v 0 -106 -3
v 9 -96 0
v 0 -94 -6
v 0 -106 -3
v -3 -107 0
v 0 -94 -6
v -9 -96 0
v 0 -106 -3
v 3 -107 0
v -3 -107 0
v 3 -108 7
v 3 -108 7
v 0 -109 11
v -3 -107 0
v -3 -108 7
f 2262 2263 2264
f 2263 2265 2264
f 2266 2267 2268
f 2267 2269 2268
f 2270 2271 2272
f 2271 2273 2272
f 2274 2275 2276
f 2275 2277 2276
f 2278 2279 2280
f 2279 2281 2280
f 2282 2283 2284
f 2283 2285 2284
f 2286 2287 2288
f 2287 2289 2288
f 2290 2291 2292
f 2291 2293 2292
f 2294 2295 2296
f 2295 2297 2296
f 2298 2299 2300
f 2299 2301 2300
f 2302 2303 2304
f 2303 2305 2304
f 2306 2307 2308
f 2307 2309 2308
f 2310 2311 2312
f 2311 2313 2312
f 2314 2315 2316
f 2315 2317 2316
f 2318 2319 2320
f 2319 2321 2320
f 2322 2323 2324
f 2323 2325 2324
f 2326 2327 2328
f 2327 2329 2328
f 2330 2331 2332
f 2331 2333 2332
f 2334 2335 2336
f 2335 2337 2336
f 2338 2339 2340
f 2339 2341 2340
o mesh_025
v 0 -2 2
v -13 -76 51
v 0 1 -1
v 1 -88 8
v -13 -76 51
v -20 -139 76
v 1 -88 8
v -6 -151 38
v -20 -139 76
v -21 -207 79
v -6 -151 38
v -18 -200 70
v 0 1 -1
v 1 -88 8
v 0 1 -1
v -5 -88 6
v 1 -88 8
v -6 -151 38
v -5 -88 6
v -13 -151 36
v -6 -151 38
v -18 -200 70
v -13 -151 36
v -19 -200 70
v 0 1 -1
v -5 -88 6
v 0 -2 2
v -13 -76 51
v -5 -88 6
v -13 -151 36
v -13 -76 51
v -20 -139 76
v -13 -151 36
v -19 -200 70
v -20 -139 76
v -21 -207 79
f 2342 2343 2344
f 2343 2345 2344
f 2346 2347 2348
f 2347 2349 2348
f 2350 2351 2352
f 2351 2353 2352
f 2354 2355 2356
f 2355 2357 2356
f 2358 2359 2360
f 2359 2361 2360
f 2362 2363 2364
f 2363 2365 2364
f 2366 2367 2368
f 2367 2369 2368
f 2370 2371 2372
f 2371 2373 2372
f 2374 2375 2376
f 2375 2377 2376
o mesh_026
v 12 -83 -4
v 11 -75 0
v 19 -87 -5
v 20 -78 0
v 10 -90 0
v 12 -83 -4
v 17 -95 0
v 19 -87 -5
v 12 -83 3
v 10 -90 0
v 19 -86 4
v 17 -95 0
v 11 -75 0
v 12 -83 3
v 20 -78 0
v 19 -86 4
v 19 -87 -5
v 20 -78 0
v 30 -92 -8
v 26 -80 0
v 17 -95 0
v 19 -87 -5
v 26 -104 0
v 30 -92 -8
v 19 -86 4
v 17 -95 0
v 30 -92 5
v 26 -104 0
v 20 -78 0
v 19 -86 4
v 26 -80 0
v 30 -92 5
v 35 -92 -1
v 26 -80 0
v 30 -92 5
v 35 -92 -1
v 30 -92 5
v 26 -104 0
v 35 -92 -1
v 26 -104 0
v 30 -92 -8
v 35 -92 -1
v 30 -92 -8
v 26 -80 0
v 54 -23 15
v 51 -25 -15
v 0 -38 0
v 32 -29 -40
v 32 -29 -40
v 17 -27 -55
v 0 -38 0
v 0 -25 -64
v 34 -31 43
v 54 -23 15
v 0 -38 0
v 0 -35 59
v 34 -31 43
v 0 -38 0
v 10 -83 23
v 0 -87 30
v 0 -111 12
v 0 -84 -28
v 10 -83 -23
v 0 -111 -12
v 0 -42 53
v 29 -37 40
v 0 -35 59
v 34 -31 43
v 55 -33 0
v 29 -37 40
v 13 -60 0
v 6 -60 18
v 30 -37 -35
v 55 -33 0
v 6 -60 -18
v 13 -60 0
v 0 -34 -64
v 30 -37 -35
v 0 -60 -24
v 6 -60 -18
v 29 -37 40
v 0 -42 53
v 6 -60 18
v 0 -60 24
v 0 -87 30
v 10 -83 23
v 0 -60 24
v 6 -60 18
v 10 -83 -23
v 0 -84 -28
v 6 -60 -18
v 0 -60 -24
v 12 -83 3
v 11 -75 0
v 10 -83 23
v 6 -60 18
v 6 -60 -18
v 11 -75 0
v 10 -83 -23
v 12 -83 -4
v 11 -75 0
v 13 -60 0
v 6 -60 18
v 11 -75 0
v 6 -60 -18
v 13 -60 0
v 10 -90 0
v 12 -83 3
v 10 -83 23
v 10 -90 0
v 10 -83 23
v 0 -116 0
v 0 -111 12
v 10 -90 0
v 10 -83 -23
v 12 -83 -4
v 0 -111 -12
v 10 -83 -23
v 0 -116 0
v 10 -90 0
v 55 -33 0
v 51 -25 -15
v 54 -23 15
v 55 -33 0
v 54 -23 15
v 29 -37 40
v 34 -31 43
v 30 -37 -35
v 32 -29 -40
v 55 -33 0
v 51 -25 -15
v 0 -34 -64
v 0 -25 -64
v 17 -27 -55
v 0 -34 -64
v 17 -27 -55
v 30 -37 -35
v 32 -29 -40
v -12 -83 -4
v -19 -87 -5
v -11 -75 0
v -20 -78 0
v -10 -90 0
v -17 -95 0
v -12 -83 -4
v -19 -87 -5
v -12 -83 3
v -19 -86 4
v -10 -90 0
v -17 -95 0
v -11 -75 0
v -20 -78 0
v -12 -83 3
v -19 -86 4
v -19 -87 -5
v -30 -92 -8
v -20 -78 0
v -26 -80 0
v -17 -95 0
v -26 -104 0
v -19 -87 -5
v -30 -92 -8
v -19 -86 4
v -30 -92 5
v -17 -95 0
v -26 -104 0
v -20 -78 0
v -26 -80 0
v -19 -86 4
v -30 -92 5
v -35 -92 -1
v -30 -92 5
v -26 -80 0
v -35 -92 -1
v -26 -104 0
v -30 -92 5
v -35 -92 -1
v -30 -92 -8
v -26 -104 0
v -35 -92 -1
v -26 -80 0
v -30 -92 -8
v -54 -23 15
v 0 -38 0
v -51 -25 -15
v -32 -29 -40
v -32 -29 -40
v 0 -38 0
v -17 -27 -55
v 0 -25 -64
v -34 -31 43
v 0 -38 0
v -54 -23 15
v 0 -35 59
v 0 -38 0
v -34 -31 43
v -10 -83 23
v 0 -111 12
v 0 -87 30
v 0 -84 -28
v 0 -111 -12
v -10 -83 -23
v 0 -42 53
v 0 -35 59
v -29 -37 40
v -34 -31 43
v -55 -33 0
v -13 -60 0
v -29 -37 40
v -6 -60 18
v -30 -37 -35
v -6 -60 -18
v -55 -33 0
v -13 -60 0
v 0 -34 -64
v 0 -60 -24
v -30 -37 -35
v -6 -60 -18
v -29 -37 40
v -6 -60 18
v 0 -42 53
v 0 -60 24
v 0 -87 30
v 0 -60 24
v -10 -83 23
v -6 -60 18
v -10 -83 -23
v -6 -60 -18
v 0 -84 -28
v 0 -60 -24
v -12 -83 3
v -10 -83 23
v -11 -75 0
v -6 -60 18
v -6 -60 -18
v -10 -83 -23
v -11 -75 0
v -12 -83 -4
v -11 -75 0
v -6 -60 18
v -13 -60 0
v -11 -75 0
v -13 -60 0
v -6 -60 -18
v -10 -90 0
v -10 -83 23
v -12 -83 3
v -10 -90 0
v 0 -116 0
v -10 -83 23
v 0 -111 12
v -10 -90 0
v -12 -83 -4
v -10 -83 -23
v 0 -111 -12
v 0 -116 0
v -10 -83 -23
v -10 -90 0
v -55 -33 0
v -54 -23 15
v -51 -25 -15
v -55 -33 0
v -29 -37 40
v -54 -23 15
v -34 -31 43
v -30 -37 -35
v -55 -33 0
v -32 -29 -40
v -51 -25 -15
v 0 -34 -64
v -17 -27 -55
v 0 -25 -64
v 0 -34 -64
v -30 -37 -35
v -17 -27 -55
v -32 -29 -40
f 2378 2379 2380
f 2379 2381 2380
f 2382 2383 2384
f 2383 2385 2384
f 2386 2387 2388
f 2387 2389 2388
f 2390 2391 2392
f 2391 2393 2392
f 2394 2395 2396
f 2395 2397 2396
f 2398 2399 2400
f 2399 2401 2400
f 2402 2403 2404
f 2403 2405 2404
f 2406 2407 2408
f 2407 2409 2408
f 2410 2411 2412
f 2413 2414 2415
f 2416 2417 2418
f 2419 2420 2421
f 2422 2423 2424
f 2423 2425 2424
f 2426 2427 2428
f 2427 2429 2428
f 2430 2431 2432
f 2433 2434 2435
f 2436 2437 2438
f 2439 2440 2441
f 2442 2443 2444
f 2443 2445 2444
f 2446 2447 2448
f 2447 2449 2448
f 2450 2451 2452
f 2451 2453 2452
f 2454 2455 2456
f 2455 2457 2456
f 2458 2459 2460
f 2459 2461 2460
f 2462 2463 2464
f 2463 2465 2464
f 2466 2467 2468
f 2467 2469 2468
f 2470 2471 2472
f 2471 2473 2472
f 2474 2475 2476
f 2475 2477 2476
f 2478 2479 2480
f 2481 2482 2483
f 2484 2485 2486
f 2487 2488 2489
f 2488 2490 2489
f 2491 2492 2493
f 2494 2495 2496
f 2495 2497 2496
f 2498 2499 2500
f 2501 2502 2503
f 2502 2504 2503
f 2505 2506 2507
f 2506 2508 2507
f 2509 2510 2511
f 2512 2513 2514
f 2513 2515 2514
f 2516 2517 2518
f 2517 2519 2518
f 2520 2521 2522
f 2521 2523 2522
f 2524 2525 2526
f 2525 2527 2526
f 2528 2529 2530
f 2529 2531 2530
f 2532 2533 2534
f 2533 2535 2534
f 2536 2537 2538
f 2537 2539 2538
f 2540 2541 2542
f 2541 2543 2542
f 2544 2545 2546
f 2545 2547 2546
f 2548 2549 2550
f 2551 2552 2553
f 2554 2555 2556
f 2557 2558 2559
f 2560 2561 2562
f 2561 2563 2562
f 2564 2565 2566
f 2565 2567 2566
f 2568 2569 2570
f 2571 2572 2573
f 2574 2575 2576
f 2577 2578 2579
f 2580 2581 2582
f 2581 2583 2582
f 2584 2585 2586
f 2585 2587 2586
f 2588 2589 2590
f 2589 2591 2590
f 2592 2593 2594
f 2593 2595 2594
f 2596 2597 2598
f 2597 2599 2598
f 2600 2601 2602
f 2601 2603 2602
f 2604 2605 2606
f 2605 2607 2606
f 2608 2609 2610
f 2609 2611 2610
f 2612 2613 2614
f 2613 2615 2614
f 2616 2617 2618
f 2619 2620 2621
f 2622 2623 2624
f 2625 2626 2627
f 2626 2628 2627
f 2629 2630 2631
f 2632 2633 2634
f 2633 2635 2634
f 2636 2637 2638
f 2639 2640 2641
f 2640 2642 2641
f 2643 2644 2645
f 2644 2646 2645
f 2647 2648 2649
f 2650 2651 2652
f 2651 2653 2652
o mesh_027
v 0 -97 -20
v 5 -98 -10
v 0 -106 -14
v 17 -14 1
v 9 -65 -1
v 0 -17 -24
v 0 -52 -18
v 14 29 -1
v 17 -14 1
v 0 25 -23
v 0 -17 -24
v 0 41 3
v 14 29 -1
v 0 25 -23
v -5 -98 -11
v 0 -97 -20
v 0 -106 -14
v 0 41 3
v 0 25 -23
v -17 30 -1
v 0 -99 -2
v -5 -98 -11
v 0 -106 -14
v 0 41 3
v -17 30 -1
v 0 27 26
v 5 -98 -10
v 0 -99 -2
v 0 -106 -14
v 0 -10 34
v 0 -57 17
v 17 -14 1
v 9 -65 -1
v 0 27 26
v 0 -10 34
v 14 29 -1
v 17 -14 1
v 0 41 3
v 0 27 26
v 14 29 -1
v 0 -97 -20
v -5 -98 -11
v 0 -52 -18
v -9 -66 -4
v -5 -98 -11
v 0 -99 -2
v -9 -66 -4
v 0 -57 17
v -17 -13 -1
v 0 -10 34
v -14 1 7
v -17 -13 -1
v -7 -2 -13
v 0 -17 -24
v -14 1 7
v -17 30 -1
v -17 10 -4
v -17 10 -4
v -17 30 -1
v -7 -2 -13
v 0 -10 34
v -17 -13 -1
v 0 -57 17
v -9 -66 -4
v -9 -66 -4
v -17 -13 -1
v 0 -52 -18
v 0 -17 -24
v -17 30 -1
v -14 1 7
v 0 27 26
v 0 -10 34
v 0 -17 -24
v -7 -2 -13
v 0 25 -23
v -17 30 -1
v -7 -2 -13
v -14 1 7
v -17 10 -4
v -17 -13 -1
v -14 1 7
v -7 -2 -13
v 0 -57 17
v 0 -99 -2
v 9 -65 -1
v 5 -98 -10
v 9 -65 -1
v 5 -98 -10
v 0 -52 -18
v 0 -97 -20
f 2654 2655 2656
f 2657 2658 2659
f 2658 2660 2659
f 2661 2662 2663
f 2662 2664 2663
f 2665 2666 2667
f 2668 2669 2670
f 2671 2672 2673
f 2674 2675 2676
f 2677 2678 2679
f 2680 2681 2682
f 2683 2684 2685
f 2684 2686 2685
f 2687 2688 2689
f 2688 2690 2689
f 2691 2692 2693
f 2694 2695 2696
f 2695 2697 2696
f 2698 2699 2700
f 2699 2701 2700
f 2702 2703 2704
f 2705 2706 2707
f 2708 2709 2710
f 2711 2712 2713
f 2714 2715 2716
f 2715 2717 2716
f 2718 2719 2720
f 2719 2721 2720
f 2722 2723 2724
f 2723 2725 2724
f 2726 2727 2728
f 2727 2729 2728
f 2730 2731 2732
f 2733 2734 2735
f 2736 2737 2738
f 2737 2739 2738
f 2740 2741 2742
f 2741 2743 2742
o mesh_028
v 0 -92 -33
v 22 -103 -7
v 0 -94 -5
v 15 -101 15
v -16 -101 14
v 0 -94 -5
v 15 -101 15
v -12 -1 -1
v 0 11 24
v 12 -1 -1
v 16 -47 -5
v 26 -81 0
v 0 -51 -31
v 0 -78 -40
v 12 -1 -1
v 16 -47 -5
v 0 3 -17
v 0 -51 -31
v -16 -47 -5
v -26 -81 0
v 0 -51 19
v 0 -75 32
v -12 -1 -1
v -16 -47 -5
v 0 -16 18
v 0 -51 19
v 0 11 24
v -12 -1 -1
v 0 -16 18
v 0 -51 19
v 0 -75 32
v 16 -47 -5
v 26 -81 0
v 0 -16 18
v 0 -51 19
v 12 -1 -1
v 16 -47 -5
v 0 11 24
v 0 -16 18
v 12 -1 -1
v 22 -103 -7
v 26 -81 0
v 15 -101 15
v 15 -101 15
v 26 -81 0
v 0 -75 32
v -16 -101 14
v 0 -75 32
v -26 -81 0
v -16 -101 14
v -26 -81 0
v -22 -103 -7
v 22 -103 -7
v 0 -78 -40
v 26 -81 0
v 0 -92 -33
v 0 -78 -40
v 22 -103 -7
v 12 -1 -1
v 0 3 -17
v -12 -1 -1
v 0 3 -17
v 0 -51 -31
v -12 -1 -1
v -16 -47 -5
v -22 -103 -7
v 0 -92 -33
v -16 -101 14
v 0 -94 -5
v 0 -51 -31
v 0 -78 -40
v -16 -47 -5
v -26 -81 0
v -22 -103 -7
v -26 -81 0
v 0 -78 -40
v -22 -103 -7
v 0 -78 -40
v 0 -92 -33
f 2744 2745 2746
f 2745 2747 2746
f 2748 2749 2750
f 2751 2752 2753
f 2754 2755 2756
f 2755 2757 2756
f 2758 2759 2760
f 2759 2761 2760
f 2762 2763 2764
f 2763 2765 2764
f 2766 2767 2768
f 2767 2769 2768
f 2770 2771 2772
f 2773 2774 2775
f 2774 2776 2775
f 2777 2778 2779
f 2778 2780 2779
f 2781 2782 2783
f 2784 2785 2786
f 2787 2788 2789
f 2790 2791 2792
f 2793 2794 2795
f 2796 2797 2798
f 2799 2800 2801
f 2802 2803 2804
f 2805 2806 2807
f 2806 2808 2807
f 2809 2810 2811
f 2810 2812 2811
f 2813 2814 2815
f 2814 2816 2815
f 2817 2818 2819
f 2820 2821 2822
o mesh_029
v -19 -2 15
v -27 -7 27
v -19 -2 31
v -18 -31 -40
v 0 -9 -43
v 0 -32 -91
v 16 -31 -40
v -18 -31 -40
v 0 -32 -91
v 28 -7 27
v 17 -2 15
v 18 -2 31
v 24 -22 0
v 28 -7 27
v 27 -32 23
v -27 -7 27
v -25 -22 0
v -31 -32 23
v -18 -31 -40
v 16 -31 -40
v -25 -22 0
v 24 -22 0
v 0 -9 -43
v 16 -31 -40
v 0 -32 -91
v 0 -9 -43
v -18 -31 -40
v 0 -12 -13
v 16 -31 -40
v 0 -9 -43
v 0 -12 -13
v 27 -32 23
v -31 -32 23
v 24 -22 0
v -25 -22 0
v -25 -22 0
v -27 -7 27
v -19 -2 15
v 28 -7 27
v 24 -22 0
v 17 -2 15
v 16 -31 -40
v 0 -12 -13
v 24 -22 0
v 24 -22 0
v 0 -12 -13
v 17 -2 15
v -25 -22 0
v -19 -2 15
v 0 -12 -13
v -25 -22 0
v 0 -12 -13
v -18 -31 -40
v -19 -2 15
v -2 3 -2
v 0 -12 -13
v 0 2 -5
v 0 -12 -13
v 0 2 -5
v 17 -2 15
v 2 3 -2
v 17 -2 15
v 2 3 -2
v -19 -2 15
v -2 3 -2
f 2823 2824 2825
f 2826 2827 2828
f 2829 2830 2831
f 2832 2833 2834
f 2835 2836 2837
f 2838 2839 2840
f 2841 2842 2843
f 2842 2844 2843
f 2845 2846 2847
f 2848 2849 2850
f 2851 2852 2853
f 2854 2855 2856
f 2855 2857 2856
f 2858 2859 2860
f 2861 2862 2863
f 2864 2865 2866
f 2867 2868 2869
f 2870 2871 2872
f 2873 2874 2875
f 2876 2877 2878
f 2877 2879 2878
f 2880 2881 2882
f 2881 2883 2882
f 2884 2885 2886
f 2885 2887 2886
o mesh_030
v -10 -10 34
v 0 13 51
v -16 -10 22
v -19 19 9
v 14 -10 22
v 8 -10 34
v -16 -10 22
v -10 -10 34
v 27 -10 0
v 14 -10 22
v -31 -10 0
v -16 -10 22
v 0 13 51
v 8 -10 34
v 18 19 9
v 14 -10 22
v 8 -10 66
v 0 14 79
v 0 -10 118
v 0 14 79
v -12 -10 66
v 0 -10 118
v 0 14 79
v 8 -10 66
v 0 13 51
v 8 -10 34
v -12 -10 66
v 0 14 79
v -10 -10 34
v 0 13 51
v -12 -10 66
v 8 -10 66
v 0 -10 118
v 8 -10 34
v 8 -10 66
v -10 -10 34
v -12 -10 66
v -20 3 50
v -18 -10 47
v -19 19 9
v -16 -10 22
v -31 -10 0
v -16 -10 22
v -37 -10 47
v -18 -10 47
v 14 -10 22
v 27 -10 0
v 16 -10 47
v 35 -10 47
v 28 15 4
v 35 -10 47
v 27 -10 0
v 31 5 49
v 18 -10 101
v 35 -10 47
v 31 5 49
v 28 15 4
v 19 3 55
v -37 -10 47
v -18 -10 47
v -22 -10 101
v 28 15 4
v 31 5 49
v 35 -10 47
v 19 3 55
v 28 15 4
v 18 19 9
v 16 -10 47
v 35 -10 47
v 18 -10 101
v -30 9 54
v -22 -10 101
v -20 3 50
v -27 17 4
v -37 -10 47
v -30 9 54
v -20 3 50
v -27 17 4
v -30 9 54
v -37 -10 47
v -27 17 4
v -31 -10 0
v 19 3 55
v 16 -10 47
v 18 -10 101
v 18 -10 101
v 31 5 49
v 19 3 55
v 16 -10 47
v 19 3 55
v 14 -10 22
v 18 19 9
v -27 17 4
v -20 3 50
v -19 19 9
v -18 -10 47
v -20 3 50
v -22 -10 101
v -22 -10 101
v -30 9 54
v -37 -10 47
f 2888 2889 2890
f 2889 2891 2890
f 2892 2893 2894
f 2893 2895 2894
f 2896 2897 2898
f 2897 2899 2898
f 2900 2901 2902
f 2901 2903 2902
f 2904 2905 2906
f 2907 2908 2909
f 2910 2911 2912
f 2911 2913 2912
f 2914 2915 2916
f 2915 2917 2916
f 2918 2919 2920
f 2921 2922 2923
f 2922 2924 2923
f 2925 2926 2927
f 2926 2928 2927
f 2929 2930 2931
f 2930 2932 2931
f 2933 2934 2935
f 2934 2936 2935
f 2937 2938 2939
f 2940 2941 2942
f 2943 2944 2945
f 2946 2947 2948
f 2949 2950 2951
f 2952 2953 2954
f 2955 2956 2957
f 2958 2959 2960
f 2961 2962 2963
f 2964 2965 2966
f 2967 2968 2969
f 2970 2971 2972
f 2973 2974 2975
f 2976 2977 2978
f 2977 2979 2978
f 2980 2981 2982
f 2983 2984 2985
f 2986 2987 2988
o mesh_031
v 0 -97 -20
v 0 -106 -14
v -5 -98 -10
v -17 -14 1
v 0 -17 -24
v -9 -65 -1
v 0 -52 -18
v -14 29 -1
v 0 25 -23
v -17 -14 1
v 0 -17 -24
v 0 41 3
v 0 25 -23
v -14 29 -1
v 5 -98 -11
v 0 -106 -14
v 0 -97 -20
v 0 41 3
v 17 30 -1
v 0 25 -23
v 0 -99 -2
v 0 -106 -14
v 5 -98 -11
v 0 41 3
v 0 27 26
v 17 30 -1
v -5 -98 -10
v 0 -106 -14
v 0 -99 -2
v 0 -10 34
v -17 -14 1
v 0 -57 17
v -9 -65 -1
v 0 27 26
v -14 29 -1
v 0 -10 34
v -17 -14 1
v 0 41 3
v -14 29 -1
v 0 27 26
v 0 -97 -20
v 0 -52 -18
v 5 -98 -11
v 9 -66 -4
v 5 -98 -11
v 9 -66 -4
v 0 -99 -2
v 0 -57 17
v 17 -13 -1
v 14 1 7
v 0 -10 34
v 17 -13 -1
v 0 -17 -24
v 7 -2 -13
v 14 1 7
v 17 10 -4
v 17 30 -1
v 17 10 -4
v 7 -2 -13
v 17 30 -1
v 0 -10 34
v 0 -57 17
v 17 -13 -1
v 9 -66 -4
v 9 -66 -4
v 0 -52 -18
v 17 -13 -1
v 0 -17 -24
v 17 30 -1
v 0 27 26
v 14 1 7
v 0 -10 34
v 0 -17 -24
v 0 25 -23
v 7 -2 -13
v 17 30 -1
v 7 -2 -13
v 17 10 -4
v 14 1 7
v 17 -13 -1
v 7 -2 -13
v 14 1 7
v 0 -57 17
v -9 -65 -1
v 0 -99 -2
v -5 -98 -10
v -9 -65 -1
v 0 -52 -18
v -5 -98 -10
v 0 -97 -20
f 2989 2990 2991
f 2992 2993 2994
f 2993 2995 2994
f 2996 2997 2998
f 2997 2999 2998
f 3000 3001 3002
f 3003 3004 3005
f 3006 3007 3008
f 3009 3010 3011
f 3012 3013 3014
f 3015 3016 3017
f 3018 3019 3020
f 3019 3021 3020
f 3022 3023 3024
f 3023 3025 3024
f 3026 3027 3028
f 3029 3030 3031
f 3030 3032 3031
f 3033 3034 3035
f 3034 3036 3035
f 3037 3038 3039
f 3040 3041 3042
f 3043 3044 3045
f 3046 3047 3048
f 3049 3050 3051
f 3050 3052 3051
f 3053 3054 3055
f 3054 3056 3055
f 3057 3058 3059
f 3058 3060 3059
f 3061 3062 3063
f 3062 3064 3063
f 3065 3066 3067
f 3068 3069 3070
f 3071 3072 3073
f 3072 3074 3073
f 3075 3076 3077
f 3076 3078 3077
o mesh_032
v 0 -92 -33
v 0 -94 -5
v -22 -103 -7
v -15 -101 15
v 16 -101 14
v -15 -101 15
v 0 -94 -5
v 12 -1 -1
v -12 -1 -1
v 0 11 24
v -16 -47 -5
v 0 -51 -31
v -26 -81 0
v 0 -78 -40
v -12 -1 -1
v 0 3 -17
v -16 -47 -5
v 0 -51 -31
v 16 -47 -5
v 0 -51 19
v 26 -81 0
v 0 -75 32
v 12 -1 -1
v 0 -16 18
v 16 -47 -5
v 0 -51 19
v 0 11 24
v 0 -16 18
v 12 -1 -1
v 0 -51 19
v -16 -47 -5
v 0 -75 32
v -26 -81 0
v 0 -16 18
v -12 -1 -1
v 0 -51 19
v -16 -47 -5
v 0 11 24
v -12 -1 -1
v 0 -16 18
v -22 -103 -7
v -15 -101 15
v -26 -81 0
v -15 -101 15
v 0 -75 32
v -26 -81 0
v 16 -101 14
v 26 -81 0
v 0 -75 32
v 16 -101 14
v 22 -103 -7
v 26 -81 0
v -22 -103 -7
v -26 -81 0
v 0 -78 -40
v 0 -92 -33
v -22 -103 -7
v 0 -78 -40
v -12 -1 -1
v 12 -1 -1
v 0 3 -17
v 0 3 -17
v 12 -1 -1
v 0 -51 -31
v 16 -47 -5
v 22 -103 -7
v 16 -101 14
v 0 -92 -33
v 0 -94 -5
v 0 -51 -31
v 16 -47 -5
v 0 -78 -40
v 26 -81 0
v 22 -103 -7
v 0 -78 -40
v 26 -81 0
v 22 -103 -7
v 0 -92 -33
v 0 -78 -40
f 3079 3080 3081
f 3080 3082 3081
f 3083 3084 3085
f 3086 3087 3088
f 3089 3090 3091
f 3090 3092 3091
f 3093 3094 3095
f 3094 3096 3095
f 3097 3098 3099
f 3098 3100 3099
f 3101 3102 3103
f 3102 3104 3103
f 3105 3106 3107
f 3108 3109 3110
f 3109 3111 3110
f 3112 3113 3114
f 3113 3115 3114
f 3116 3117 3118
f 3119 3120 3121
f 3122 3123 3124
f 3125 3126 3127
f 3128 3129 3130
f 3131 3132 3133
f 3134 3135 3136
f 3137 3138 3139
f 3140 3141 3142
f 3141 3143 3142
f 3144 3145 3146
f 3145 3147 3146
f 3148 3149 3150
f 3149 3151 3150
f 3152 3153 3154
f 3155 3156 3157
o mesh_033
v 19 -2 15
v 19 -2 31
v 27 -7 27
v 18 -31 -40
v 0 -32 -91
v 0 -9 -43
v -16 -31 -40
v 0 -32 -91
v 18 -31 -40
v -28 -7 27
v -18 -2 31
v -17 -2 15
v -24 -22 0
v -27 -32 23
v -28 -7 27
v 27 -7 27
v 31 -32 23
v 25 -22 0
v 18 -31 -40
v 25 -22 0
v -16 -31 -40
v -24 -22 0
v 0 -9 -43
v 0 -32 -91
v -16 -31 -40
v 0 -9 -43
v 0 -12 -13
v 18 -31 -40
v -16 -31 -40
v 0 -12 -13
v 0 -9 -43
v -27 -32 23
v -24 -22 0
v 31 -32 23
v 25 -22 0
v 25 -22 0
v 19 -2 15
v 27 -7 27
v -28 -7 27
v -17 -2 15
v -24 -22 0
v -16 -31 -40
v -24 -22 0
v 0 -12 -13
v -24 -22 0
v -17 -2 15
v 0 -12 -13
v 25 -22 0
v 0 -12 -13
v 19 -2 15
v 25 -22 0
v 18 -31 -40
v 0 -12 -13
v 19 -2 15
v 0 -12 -13
v 2 3 -2
v 0 2 -5
v 0 -12 -13
v -17 -2 15
v 0 2 -5
v -2 3 -2
v -17 -2 15
v 19 -2 15
v -2 3 -2
v 2 3 -2
f 3158 3159 3160
f 3161 3162 3163
f 3164 3165 3166
f 3167 3168 3169
f 3170 3171 3172
f 3173 3174 3175
f 3176 3177 3178
f 3177 3179 3178
f 3180 3181 3182
f 3183 3184 3185
f 3186 3187 3188
f 3189 3190 3191
f 3190 3192 3191
f 3193 3194 3195
f 3196 3197 3198
f 3199 3200 3201
f 3202 3203 3204
f 3205 3206 3207
f 3208 3209 3210
f 3211 3212 3213
f 3212 3214 3213
f 3215 3216 3217
f 3216 3218 3217
f 3219 3220 3221
f 3220 3222 3221
o mesh_034
v 10 -10 34
v 16 -10 22
v 0 13 51
v 19 19 9
v -14 -10 22
v 16 -10 22
v -8 -10 34
v 10 -10 34
v -27 -10 0
v 31 -10 0
v -14 -10 22
v 16 -10 22
v 0 13 51
v -18 19 9
v -8 -10 34
v -14 -10 22
v -8 -10 66
v 0 -10 118
v 0 14 79
v 0 14 79
v 0 -10 118
v 12 -10 66
v 0 14 79
v 0 13 51
v -8 -10 66
v -8 -10 34
v 12 -10 66
v 10 -10 34
v 0 14 79
v 0 13 51
v 12 -10 66
v 0 -10 118
v -8 -10 66
v -8 -10 34
v 10 -10 34
v -8 -10 66
v 12 -10 66
v 20 3 50
v 19 19 9
v 18 -10 47
v 16 -10 22
v 31 -10 0
v 37 -10 47
v 16 -10 22
v 18 -10 47
v -14 -10 22
v -16 -10 47
v -27 -10 0
v -35 -10 47
v -28 15 4
v -27 -10 0
v -35 -10 47
v -31 5 49
v -35 -10 47
v -18 -10 101
v -31 5 49
v -19 3 55
v -28 15 4
v 37 -10 47
v 22 -10 101
v 18 -10 47
v -28 15 4
v -35 -10 47
v -31 5 49
v -19 3 55
v -18 19 9
v -28 15 4
v -16 -10 47
v -18 -10 101
v -35 -10 47
v 30 9 54
v 20 3 50
v 22 -10 101
v 27 17 4
v 30 9 54
v 37 -10 47
v 20 3 50
v 30 9 54
v 27 17 4
v 37 -10 47
v 31 -10 0
v 27 17 4
v -19 3 55
v -18 -10 101
v -16 -10 47
v -18 -10 101
v -19 3 55
v -31 5 49
v -16 -10 47
v -14 -10 22
v -19 3 55
v -18 19 9
v 27 17 4
v 19 19 9
v 20 3 50
v 18 -10 47
v 22 -10 101
v 20 3 50
v 22 -10 101
v 37 -10 47
v 30 9 54
f 3223 3224 3225
f 3224 3226 3225
f 3227 3228 3229
f 3228 3230 3229
f 3231 3232 3233
f 3232 3234 3233
f 3235 3236 3237
f 3236 3238 3237
f 3239 3240 3241
f 3242 3243 3244
f 3245 3246 3247
f 3246 3248 3247
f 3249 3250 3251
f 3250 3252 3251
f 3253 3254 3255
f 3256 3257 3258
f 3257 3259 3258
f 3260 3261 3262
f 3261 3263 3262
f 3264 3265 3266
f 3265 3267 3266
f 3268 3269 3270
f 3269 3271 3270
f 3272 3273 3274
f 3275 3276 3277
f 3278 3279 3280
f 3281 3282 3283
f 3284 3285 3286
f 3287 3288 3289
f 3290 3291 3292
f 3293 3294 3295
f 3296 3297 3298
f 3299 3300 3301
f 3302 3303 3304
f 3305 3306 3307
f 3308 3309 3310
f 3311 3312 3313
f 3312 3314 3313
f 3315 3316 3317
f 3318 3319 3320
f 3321 3322 3323
