# Jade Cocoon mesh export
# source ../Extracted/DATA001_split\0197_0097A000.bin sector 23
o mesh_000
v 103 0 61
v 119 0 -10
v 180 500 108
v 209 500 -18
v 119 0 -10
v 90 0 -78
v 209 500 -18
v 158 500 -138
v 90 0 -78
v 27 0 -117
v 158 500 -138
v 47 500 -205
v 27 0 -117
v -47 0 -110
v 47 500 -205
v -82 500 -193
v -47 0 -110
v -103 0 -61
v -82 500 -193
v -180 500 -108
v 95 0 -8
v 82 0 49
v 607 95 -53
v 522 95 313
v 607 95 -53
v 522 95 313
v 1118 191 -97
v 962 191 578
v 1118 191 -97
v 962 191 578
v 1630 287 -142
v 1402 287 842
v 72 0 -63
v 95 0 -8
v 460 95 -399
v 607 95 -53
v 460 95 -399
v 607 95 -53
v 847 191 -736
v 1118 191 -97
v 847 191 -736
v 1118 191 -97
v 1234 287 -1073
v 1630 287 -142
v 21 0 -93
v 72 0 -63
v 137 95 -593
v 460 95 -399
v 137 95 -593
v 460 95 -399
v 252 191 -1094
v 847 191 -736
v 252 191 -1094
v 847 191 -736
v 368 287 -1594
v 1234 287 -1073
v -37 0 -88
v 21 0 -93
v -238 95 -561
v 137 95 -593
v -238 95 -561
v 137 95 -593
v -438 191 -1033
v 252 191 -1094
v -438 191 -1033
v 252 191 -1094
v -639 287 -1506
v 368 287 -1594
v -82 0 -49
v -37 0 -88
v -522 95 -313
v -238 95 -561
v -522 95 -313
v -238 95 -561
v -962 191 -578
v -438 191 -1033
v -962 191 -578
v -438 191 -1033
v -1402 287 -842
v -639 287 -1506
v -95 0 8
v -82 0 -49
v -607 95 53
v -522 95 -313
v -607 95 53
v -522 95 -313
v -1118 191 97
v -962 191 -578
v -1118 191 97
v -962 191 -578
v -1630 287 142
v -1402 287 -842
v -72 0 63
v -95 0 8
v -460 95 399
v -607 95 53
v -460 95 399
v -607 95 53
v -847 191 736
v -1118 191 97
v -847 191 736
v -1118 191 97
v -1234 287 1073
v -1630 287 142
v -21 0 93
v -72 0 63
v -137 95 593
v -460 95 399
v -137 95 593
v -460 95 399
v -252 191 1094
v -847 191 736
v -252 191 1094
v -847 191 736
v -368 287 1594
v -1234 287 1073
v 37 0 88
v -21 0 93
v 238 95 561
v -137 95 593
v 238 95 561
v -137 95 593
v 438 191 1033
v -252 191 1094
v 438 191 1033
v -252 191 1094
v 639 287 1506
v -368 287 1594
v 82 0 49
v 37 0 88
v 522 95 313
v 238 95 561
v 522 95 313
v 238 95 561
v 962 191 578
v 438 191 1033
v 962 191 578
v 438 191 1033
v 1402 287 842
v 639 287 1506
v 492 356 207
v 100 0 20
v 453 356 272
v 82 0 49
v 453 356 272
v 82 0 49
v 414 356 337
v 64 0 78
v 885 712 395
v 492 356 207
v 825 712 495
v 453 356 272
v 825 712 495
v 453 356 272
v 764 712 596
v 414 356 337
v 12 356 534
v 22 0 99
v -62 356 525
v -11 0 95
v -62 356 525
v -11 0 95
v -137 356 516
v -45 0 91
v 3 712 969
v 12 356 534
v -113 712 955
v -62 356 525
v -113 712 955
v -62 356 525
v -229 712 942
v -137 356 516
v -482 356 231
v -81 0 61
v -504 356 159
v -91 0 28
v -504 356 159
v -91 0 28
v -527 356 86
v -102 0 -3
v -882 712 401
v -482 356 231
v -917 712 289
v -504 356 159
v -917 712 289
v -504 356 159
v -953 712 177
v -527 356 86
v -62 0 -80
v -237 356 -479
v -30 0 -91
v -165 356 -502
v -30 0 -91
v -165 356 -502
v 2 0 -102
v -93 356 -526
v -237 356 -479
v -412 712 -877
v -165 356 -502
v -301 712 -914
v -165 356 -502
v -301 712 -914
v -93 356 -526
v -189 712 -950
v 47 0 -90
v 339 356 -413
v 70 0 -65
v 390 356 -357
v 70 0 -65
v 390 356 -357
v 93 0 -39
v 441 356 -301
v 339 356 -413
v 630 712 -736
v 390 356 -357
v 709 712 -650
v 390 356 -357
v 709 712 -650
v 441 356 -301
v 788 712 -563
f 1 2 3
f 2 4 3
f 5 6 7
f 6 8 7
f 9 10 11
f 10 12 11
f 13 14 15
f 14 16 15
f 17 18 19
f 18 20 19
f 21 22 23
f 22 24 23
f 25 26 27
f 26 28 27
f 29 30 31
f 30 32 31
f 33 34 35
f 34 36 35
f 37 38 39
f 38 40 39
f 41 42 43
f 42 44 43
f 45 46 47
f 46 48 47
f 49 50 51
f 50 52 51
f 53 54 55
f 54 56 55
f 57 58 59
f 58 60 59
f 61 62 63
f 62 64 63
f 65 66 67
f 66 68 67
f 69 70 71
f 70 72 71
f 73 74 75
f 74 76 75
f 77 78 79
f 78 80 79
f 81 82 83
f 82 84 83
f 85 86 87
f 86 88 87
f 89 90 91
f 90 92 91
f 93 94 95
f 94 96 95
f 97 98 99
f 98 100 99
f 101 102 103
f 102 104 103
f 105 106 107
f 106 108 107
f 109 110 111
f 110 112 111
f 113 114 115
f 114 116 115
f 117 118 119
f 118 120 119
f 121 122 123
f 122 124 123
f 125 126 127
f 126 128 127
f 129 130 131
f 130 132 131
f 133 134 135
f 134 136 135
f 137 138 139
f 138 140 139
f 141 142 143
f 142 144 143
f 145 146 147
f 146 148 147
f 149 150 151
f 150 152 151
f 153 154 155
f 154 156 155
f 157 158 159
f 158 160 159
f 161 162 163
f 162 164 163
f 165 166 167
f 166 168 167
f 169 170 171
f 170 172 171
f 173 174 175
f 174 176 175
f 177 178 179
f 178 180 179
f 181 182 183
f 182 184 183
f 185 186 187
f 186 188 187
f 189 190 191
f 190 192 191
f 193 194 195
f 194 196 195
f 197 198 199
f 198 200 199
f 201 202 203
f 202 204 203
f 205 206 207
f 206 208 207
f 209 210 211
f 210 212 211
f 213 214 215
f 214 216 215
f 217 218 219
f 218 220 219
o mesh_001
v 1592 1137 5581
v 1592 -112 5581
v 375 1137 5300
v 375 -112 5300
v 375 1137 5300
v 375 -112 5300
v -842 1137 5018
v -842 -112 5018
v 1592 2387 5581
v 1592 1137 5581
v 375 2387 5300
v 375 1137 5300
v 375 2387 5300
v 375 1137 5300
v -842 2387 5018
v -842 1137 5018
v 224 262 3137
v 224 -987 3137
v -1024 262 3137
v -1024 -987 3137
v -1024 262 3137
v -1024 -987 3137
v -2275 262 3137
v -2275 -987 3137
v 224 1512 3137
v 224 262 3137
v -1024 1512 3137
v -1024 262 3137
v -1024 1512 3137
v -1024 262 3137
v -2275 1512 3137
v -2275 262 3137
v 2788 -174 2633
v 2788 -1112 2633
v 1887 -174 2375
v 1887 -1112 2375
v 1887 -174 2375
v 1887 -1112 2375
v 986 -174 2116
v 986 -1112 2116
v 2788 762 2633
v 2788 -174 2633
v 1887 762 2375
v 1887 -174 2375
v 1887 762 2375
v 1887 -174 2375
v 986 762 2116
v 986 -174 2116
v -1944 774 4884
v -1944 -474 4884
v -3062 774 4324
v -3062 -474 4324
v -3062 774 4324
v -3062 -474 4324
v -4180 774 3765
v -4180 -474 3765
v -1944 2025 4884
v -1944 774 4884
v -3062 2025 4324
v -3062 774 4324
v -3062 2025 4324
v -3062 774 4324
v -4180 2025 3765
v -4180 774 3765
f 221 222 223
f 222 224 223
f 225 226 227
f 226 228 227
f 229 230 231
f 230 232 231
f 233 234 235
f 234 236 235
f 237 238 239
f 238 240 239
f 241 242 243
f 242 244 243
f 245 246 247
f 246 248 247
f 249 250 251
f 250 252 251
f 253 254 255
f 254 256 255
f 257 258 259
f 258 260 259
f 261 262 263
f 262 264 263
f 265 266 267
f 266 268 267
f 269 270 271
f 270 272 271
f 273 274 275
f 274 276 275
f 277 278 279
f 278 280 279
f 281 282 283
f 282 284 283
