# Jade Cocoon mesh export
# source ../Extracted/DATA001_split\0010_00112800.bin sector 0
o mesh_000
v 58 212 0
v 0 45 0
v 0 212 -58
v 0 212 -58
v 0 45 0
v -58 212 0
v -58 212 0
v 0 45 0
v 0 212 58
v 0 212 58
v 0 45 0
v 58 212 0
v 0 379 0
v 58 212 0
v 0 212 -58
v 0 379 0
v 0 212 -58
v -58 212 0
v 0 379 0
v -58 212 0
v 0 212 58
v 0 379 0
v 0 212 58
v 58 212 0
v 78 106 0
v 39 0 0
v 72 148 -30
v 27 0 -11
v 72 148 -30
v 27 0 -11
v 55 106 -55
v 27 0 -27
v 55 106 -55
v 27 0 -27
v 30 148 -72
v 11 0 -27
v 30 148 -72
v 11 0 -27
v 0 106 -78
v 0 0 -39
v 0 106 -78
v 0 0 -39
v -30 148 -72
v -11 0 -27
v -30 148 -72
v -11 0 -27
v -55 106 -55
v -27 0 -27
v -55 106 -55
v -27 0 -27
v -72 148 -30
v -27 0 -11
v -72 148 -30
v -27 0 -11
v -78 106 0
v -39 0 0
v -78 106 0
v -39 0 0
v -72 148 30
v -27 0 11
v -72 148 30
v -27 0 11
v -55 106 55
v -27 0 27
v -55 106 55
v -27 0 27
v -30 148 72
v -11 0 27
v -30 148 72
v -11 0 27
v 0 106 78
v 0 0 39
v 0 106 78
v 0 0 39
v 30 148 72
v 11 0 27
v 30 148 72
v 11 0 27
v 55 106 55
v 27 0 27
v 55 106 55
v 27 0 27
v 72 148 30
v 27 0 11
v 72 148 30
v 27 0 11
v 78 106 0
v 39 0 0
v 39 0 0
v 78 106 0
v 27 0 -11
v 72 148 -30
v 27 0 -11
v 72 148 -30
v 27 0 -27
v 55 106 -55
v 27 0 -27
v 55 106 -55
v 11 0 -27
v 30 148 -72
v 11 0 -27
v 30 148 -72
v 0 0 -39
v 0 106 -78
v 0 0 -39
v 0 106 -78
v -11 0 -27
v -30 148 -72
v -11 0 -27
v -30 148 -72
v -27 0 -27
v -55 106 -55
v -27 0 -27
v -55 106 -55
v -27 0 -11
v -72 148 -30
v -27 0 -11
v -72 148 -30
v -39 0 0
v -78 106 0
v -39 0 0
v -78 106 0
v -27 0 11
v -72 148 30
v -27 0 11
v -72 148 30
v -27 0 27
v -55 106 55
v -27 0 27
v -55 106 55
v -11 0 27
v -30 148 72
v -11 0 27
v -30 148 72
v 0 0 39
v 0 106 78
v 0 0 39
v 0 106 78
v 11 0 27
v 30 148 72
v 11 0 27
v 30 148 72
v 27 0 27
v 55 106 55
v 27 0 27
v 55 106 55
v 27 0 11
v 72 148 30
v 27 0 11
v 72 148 30
v 39 0 0
v 78 106 0
f 1 2 3
f 4 5 6
f 7 8 9
f 10 11 12
f 13 14 15
f 16 17 18
f 19 20 21
f 22 23 24
f 25 26 27
f 26 28 27
f 29 30 31
f 30 32 31
f 33 34 35
f 34 36 35
f 37 38 39
f 38 40 39
f 41 42 43
f 42 44 43
f 45 46 47
f 46 48 47
f 49 50 51
f 50 52 51
f 53 54 55
f 54 56 55
f 57 58 59
f 58 60 59
f 61 62 63
f 62 64 63
f 65 66 67
f 66 68 67
f 69 70 71
f 70 72 71
f 73 74 75
f 74 76 75
f 77 78 79
f 78 80 79
f 81 82 83
f 82 84 83
f 85 86 87
f 86 88 87
f 89 90 91
f 90 92 91
f 93 94 95
f 94 96 95
f 97 98 99
f 98 100 99
f 101 102 103
f 102 104 103
f 105 106 107
f 106 108 107
f 109 110 111
f 110 112 111
f 113 114 115
f 114 116 115
f 117 118 119
f 118 120 119
f 121 122 123
f 122 124 123
f 125 126 127
f 126 128 127
f 129 130 131
f 130 132 131
f 133 134 135
f 134 136 135
f 137 138 139
f 138 140 139
f 141 142 143
f 142 144 143
f 145 146 147
f 146 148 147
f 149 150 151
f 150 152 151
o mesh_001
v 22 221 0
v 0 157 0
v 0 221 -22
v 0 221 -22
v 0 157 0
v -22 221 0
v -22 221 0
v 0 157 0
v 0 221 22
v 0 221 22
v 0 157 0
v 22 221 0
v 0 285 0
v 22 221 0
v 0 221 -22
v 0 285 0
v 0 221 -22
v -22 221 0
v 0 285 0
v -22 221 0
v 0 221 22
v 0 285 0
v 0 221 22
v 22 221 0
f 153 154 155
f 156 157 158
f 159 160 161
f 162 163 164
f 165 166 167
f 168 169 170
f 171 172 173
f 174 175 176
o mesh_002
v 39 43 0
v 23 0 0
v 33 52 -13
v 16 0 -6
v 33 52 -13
v 16 0 -6
v 27 43 -27
v 16 0 -16
v 27 43 -27
v 16 0 -16
v 13 52 -33
v 6 0 -16
v 13 52 -33
v 6 0 -16
v 0 43 -39
v 0 0 -23
v 0 43 -39
v 0 0 -23
v -13 52 -33
v -6 0 -16
v -13 52 -33
v -6 0 -16
v -27 43 -27
v -16 0 -16
v -27 43 -27
v -16 0 -16
v -33 52 -13
v -16 0 -6
v -33 52 -13
v -16 0 -6
v -39 43 0
v -23 0 0
v -39 43 0
v -23 0 0
v -33 52 13
v -16 0 6
v -33 52 13
v -16 0 6
v -27 43 27
v -16 0 16
v -27 43 27
v -16 0 16
v -13 52 33
v -6 0 16
v -13 52 33
v -6 0 16
v 0 43 39
v 0 0 23
v 0 43 39
v 0 0 23
v 13 52 33
v 6 0 16
v 13 52 33
v 6 0 16
v 27 43 27
v 16 0 16
v 27 43 27
v 16 0 16
v 33 52 13
v 16 0 6
v 33 52 13
v 16 0 6
v 39 43 0
v 23 0 0
v 55 87 0
v 39 43 0
v 51 104 -21
v 33 52 -13
v 51 104 -21
v 33 52 -13
v 39 87 -39
v 27 43 -27
v 39 87 -39
v 27 43 -27
v 21 104 -51
v 13 52 -33
v 21 104 -51
v 13 52 -33
v 0 87 -55
v 0 43 -39
v 0 87 -55
v 0 43 -39
v -21 104 -51
v -13 52 -33
v -21 104 -51
v -13 52 -33
v -39 87 -39
v -27 43 -27
v -39 87 -39
v -27 43 -27
v -51 104 -21
v -33 52 -13
v -51 104 -21
v -33 52 -13
v -55 87 0
v -39 43 0
v -55 87 0
v -39 43 0
v -51 104 21
v -33 52 13
v -51 104 21
v -33 52 13
v -39 87 39
v -27 43 27
v -39 87 39
v -27 43 27
v -21 104 51
v -13 52 33
v -21 104 51
v -13 52 33
v 0 87 55
v 0 43 39
v 0 87 55
v 0 43 39
v 21 104 51
v 13 52 33
v 21 104 51
v 13 52 33
v 39 87 39
v 27 43 27
v 39 87 39
v 27 43 27
v 51 104 21
v 33 52 13
v 51 104 21
v 33 52 13
v 55 87 0
v 39 43 0
v 23 0 0
v 39 43 0
v 16 0 -6
v 33 52 -13
v 16 0 -6
v 33 52 -13
v 16 0 -16
v 27 43 -27
v 16 0 -16
v 27 43 -27
v 6 0 -16
v 13 52 -33
v 6 0 -16
v 13 52 -33
v 0 0 -23
v 0 43 -39
v 0 0 -23
v 0 43 -39
v -6 0 -16
v -13 52 -33
v -6 0 -16
v -13 52 -33
v -16 0 -16
v -27 43 -27
v -16 0 -16
v -27 43 -27
v -16 0 -6
v -33 52 -13
v -16 0 -6
v -33 52 -13
v -23 0 0
v -39 43 0
v -23 0 0
v -39 43 0
v -16 0 6
v -33 52 13
v -16 0 6
v -33 52 13
v -16 0 16
v -27 43 27
v -16 0 16
v -27 43 27
v -6 0 16
v -13 52 33
v -6 0 16
v -13 52 33
v 0 0 23
v 0 43 39
v 0 0 23
v 0 43 39
v 6 0 16
v 13 52 33
v 6 0 16
v 13 52 33
v 16 0 16
v 27 43 27
v 16 0 16
v 27 43 27
v 16 0 6
v 33 52 13
v 16 0 6
v 33 52 13
v 23 0 0
v 39 43 0
v 39 43 0
v 55 87 0
v 33 52 -13
v 51 104 -21
v 33 52 -13
v 51 104 -21
v 27 43 -27
v 39 87 -39
v 27 43 -27
v 39 87 -39
v 13 52 -33
v 21 104 -51
v 13 52 -33
v 21 104 -51
v 0 43 -39
v 0 87 -55
v 0 43 -39
v 0 87 -55
v -13 52 -33
v -21 104 -51
v -13 52 -33
v -21 104 -51
v -27 43 -27
v -39 87 -39
v -27 43 -27
v -39 87 -39
v -33 52 -13
v -51 104 -21
v -33 52 -13
v -51 104 -21
v -39 43 0
v -55 87 0
v -39 43 0
v -55 87 0
v -33 52 13
v -51 104 21
v -33 52 13
v -51 104 21
v -27 43 27
v -39 87 39
v -27 43 27
v -39 87 39
v -13 52 33
v -21 104 51
v -13 52 33
v -21 104 51
v 0 43 39
v 0 87 55
v 0 43 39
v 0 87 55
v 13 52 33
v 21 104 51
v 13 52 33
v 21 104 51
v 27 43 27
v 39 87 39
v 27 43 27
v 39 87 39
v 33 52 13
v 51 104 21
v 33 52 13
v 51 104 21
v 39 43 0
v 55 87 0
v 5 204 0
v 0 199 0
v 0 204 -5
v 0 204 -5
v 0 199 0
v -5 204 0
v -5 204 0
v 0 199 0
v 0 204 5
v 0 204 5
v 0 199 0
v 5 204 0
v 0 210 0
v 5 204 0
v 0 204 -5
v 0 210 0
v 0 204 -5
v -5 204 0
v 0 210 0
v -5 204 0
v 0 204 5
v 0 210 0
v 0 204 5
v 5 204 0
f 177 178 179
f 178 180 179
f 181 182 183
f 182 184 183
f 185 186 187
f 186 188 187
f 189 190 191
f 190 192 191
f 193 194 195
f 194 196 195
f 197 198 199
f 198 200 199
f 201 202 203
f 202 204 203
f 205 206 207
f 206 208 207
f 209 210 211
f 210 212 211
f 213 214 215
f 214 216 215
f 217 218 219
f 218 220 219
f 221 222 223
f 222 224 223
f 225 226 227
f 226 228 227
f 229 230 231
f 230 232 231
f 233 234 235
f 234 236 235
f 237 238 239
f 238 240 239
f 241 242 243
f 242 244 243
f 245 246 247
f 246 248 247
f 249 250 251
f 250 252 251
f 253 254 255
f 254 256 255
f 257 258 259
f 258 260 259
f 261 262 263
f 262 264 263
f 265 266 267
f 266 268 267
f 269 270 271
f 270 272 271
f 273 274 275
f 274 276 275
f 277 278 279
f 278 280 279
f 281 282 283
f 282 284 283
f 285 286 287
f 286 288 287
f 289 290 291
f 290 292 291
f 293 294 295
f 294 296 295
f 297 298 299
f 298 300 299
f 301 302 303
f 302 304 303
f 305 306 307
f 306 308 307
f 309 310 311
f 310 312 311
f 313 314 315
f 314 316 315
f 317 318 319
f 318 320 319
f 321 322 323
f 322 324 323
f 325 326 327
f 326 328 327
f 329 330 331
f 330 332 331
f 333 334 335
f 334 336 335
f 337 338 339
f 338 340 339
f 341 342 343
f 342 344 343
f 345 346 347
f 346 348 347
f 349 350 351
f 350 352 351
f 353 354 355
f 354 356 355
f 357 358 359
f 358 360 359
f 361 362 363
f 362 364 363
f 365 366 367
f 366 368 367
f 369 370 371
f 370 372 371
f 373 374 375
f 374 376 375
f 377 378 379
f 378 380 379
f 381 382 383
f 382 384 383
f 385 386 387
f 386 388 387
f 389 390 391
f 390 392 391
f 393 394 395
f 394 396 395
f 397 398 399
f 398 400 399
f 401 402 403
f 402 404 403
f 405 406 407
f 406 408 407
f 409 410 411
f 410 412 411
f 413 414 415
f 414 416 415
f 417 418 419
f 418 420 419
f 421 422 423
f 422 424 423
f 425 426 427
f 426 428 427
f 429 430 431
f 430 432 431
f 433 434 435
f 436 437 438
f 439 440 441
f 442 443 444
f 445 446 447
f 448 449 450
f 451 452 453
f 454 455 456
