# Jade Cocoon mesh export
# source ../Extracted/DATA001_split\1072_0C91B800.bin sector 8
o mesh_000
v -37 0 0
v 0 -75 0
v 0 0 37
v 0 0 37
v 0 -75 0
v 37 0 0
v 37 0 0
v 0 -75 0
v 0 0 -37
v 0 0 -37
v 0 -75 0
v -37 0 0
v 0 75 0
v -37 0 0
v 0 0 37
v 0 75 0
v 0 0 37
v 37 0 0
v 0 75 0
v 37 0 0
v 0 0 -37
v 0 75 0
v 0 0 -37
v -37 0 0
f 1 2 3
f 4 5 6
f 7 8 9
f 10 11 12
f 13 14 15
f 16 17 18
f 19 20 21
f 22 23 24
o mesh_001
v -37 0 0
v 0 -75 0
v 0 0 37
v 0 0 37
v 0 -75 0
v 37 0 0
v 37 0 0
v 0 -75 0
v 0 0 -37
v 0 0 -37
v 0 -75 0
v -37 0 0
v 0 75 0
v -37 0 0
v 0 0 37
v 0 75 0
v 0 0 37
v 37 0 0
v 0 75 0
v 37 0 0
v 0 0 -37
v 0 75 0
v 0 0 -37
v -37 0 0
f 25 26 27
f 28 29 30
f 31 32 33
f 34 35 36
f 37 38 39
f 40 41 42
f 43 44 45
f 46 47 48
o mesh_002
v -37 0 0
v 0 -75 0
v 0 0 37
v 0 0 37
v 0 -75 0
v 37 0 0
v 37 0 0
v 0 -75 0
v 0 0 -37
v 0 0 -37
v 0 -75 0
v -37 0 0
v 0 75 0
v -37 0 0
v 0 0 37
v 0 75 0
v 0 0 37
v 37 0 0
v 0 75 0
v 37 0 0
v 0 0 -37
v 0 75 0
v 0 0 -37
v -37 0 0
f 49 50 51
f 52 53 54
f 55 56 57
f 58 59 60
f 61 62 63
f 64 65 66
f 67 68 69
f 70 71 72
o mesh_003
v -37 0 0
v 0 -75 0
v 0 0 37
v 0 0 37
v 0 -75 0
v 37 0 0
v 37 0 0
v 0 -75 0
v 0 0 -37
v 0 0 -37
v 0 -75 0
v -37 0 0
v 0 75 0
v -37 0 0
v 0 0 37
v 0 75 0
v 0 0 37
v 37 0 0
v 0 75 0
v 37 0 0
v 0 0 -37
v 0 75 0
v 0 0 -37
v -37 0 0
f 73 74 75
f 76 77 78
f 79 80 81
f 82 83 84
f 85 86 87
f 88 89 90
f 91 92 93
f 94 95 96
